<svg version="1.1" viewBox="0.0 0.0 936.0 495.0" fill="none" stroke="none" stroke-linecap="square" stroke-miterlimit="10" width="936" height="495" xmlns:xlink="http://www.w3.org/1999/xlink" xmlns="http://www.w3.org/2000/svg"><path fill="#ffffff" fill-opacity="0.0" d="M0 0L936.0 0L936.0 495.0L0 495.0L0 0Z" fill-rule="nonzero"/><path fill="#46bdc6" d="M423.5146 29.237288C438.15503 26.253334 453.05856 24.75 468.0 24.75L468.0 136.125C460.5293 136.125 453.0775 136.87666 445.7573 138.36864Z" fill-rule="nonzero"/><path fill="#ff6d01" d="M383.4042 41.439053C396.361 36.119804 409.7906 32.03446 423.5146 29.237288L445.7573 138.36864C438.8953 139.76723 432.18048 141.8099 425.70212 144.46953Z" fill-rule="nonzero"/><path fill="#34a853" d="M271.46964 142.6507C295.86847 96.91731 335.453 61.124825 383.4042 41.439053L425.70212 144.46953C401.7265 154.31241 381.93423 172.20865 369.7348 195.07535Z" fill-rule="nonzero"/><path fill="#fbbc04" d="M255.86758 315.45148C237.49962 258.10992 243.12779 195.77486 271.46964 142.6507L369.7348 195.07535C355.5639 221.63744 352.74982 252.80496 361.9338 281.47574Z" fill-rule="nonzero"/><path fill="#ea4335" d="M447.8244 469.3344C358.74625 461.23285 283.15366 400.63376 255.86758 315.45148L361.9338 281.47574C375.57684 324.06686 413.37314 354.36642 457.9122 358.4172Z" fill-rule="nonzero"/><path fill="#4285f4" d="M468.0 24.75C549.9918 24.75 625.355 69.7934 664.1857 142.0072C703.0164 214.221 699.0362 301.92886 653.8243 370.32874C608.61237 438.7286 529.4792 476.76083 447.8244 469.3344L457.9122 358.4172C498.7396 362.1304 538.3062 343.1143 560.9122 308.91437C583.51807 274.71442 585.50824 230.86049 566.09283 194.7536C546.6775 158.6467 508.9959 136.125 468.0 136.125Z" fill-rule="nonzero"/><path fill="#1a1a1a" d="M25.625 35.75L25.625 27.15625L26.765625 27.15625L26.765625 34.734375L31.0 34.734375L31.0 35.75L25.625 35.75ZM32.546875 28.375L32.546875 27.15625L33.609375 27.15625L33.609375 28.375L32.546875 28.375ZM32.546875 35.75L32.546875 29.53125L33.609375 29.53125L33.609375 35.75L32.546875 35.75ZM39.515625 38.140625L39.515625 35.09375Q39.265625 35.4375 38.8125 35.671875Q38.375 35.890625 37.875 35.890625Q36.765625 35.890625 35.96875 35.015625Q35.171875 34.125 35.171875 32.578125Q35.171875 31.640625 35.5 30.90625Q35.828125 30.15625 36.4375 29.78125Q37.0625 29.390625 37.796875 29.390625Q38.953125 29.390625 39.609375 30.359375L39.609375 29.53125L40.5625 29.53125L40.5625 38.140625L39.515625 38.140625ZM36.25 32.625Q36.25 33.828125 36.75 34.421875Q37.265625 35.015625 37.96875 35.015625Q38.640625 35.015625 39.125 34.453125Q39.609375 33.875 39.609375 32.71875Q39.609375 31.46875 39.09375 30.84375Q38.59375 30.21875 37.890625 30.21875Q37.21875 30.21875 36.734375 30.8125Q36.25 31.390625 36.25 32.625ZM46.625 35.75L46.625 34.828125Q45.890625 35.890625 44.640625 35.890625Q44.09375 35.890625 43.609375 35.6875Q43.140625 35.46875 42.90625 35.15625Q42.671875 34.828125 42.578125 34.359375Q42.515625 34.0625 42.515625 33.375L42.515625 29.53125L43.578125 29.53125L43.578125 32.984375Q43.578125 33.796875 43.640625 34.09375Q43.734375 34.5 44.046875 34.75Q44.375 34.984375 44.859375 34.984375Q45.328125 34.984375 45.734375 34.75Q46.15625 34.5 46.328125 34.078125Q46.515625 33.65625 46.515625 32.859375L46.515625 29.53125L47.5625 29.53125L47.5625 35.75L46.625 35.75ZM49.546875 28.375L49.546875 27.15625L50.609375 27.15625L50.609375 28.375L49.546875 28.375ZM49.546875 35.75L49.546875 29.53125L50.609375 29.53125L50.609375 35.75L49.546875 35.75ZM56.578125 35.75L56.578125 34.96875Q55.984375 35.890625 54.84375 35.890625Q54.09375 35.890625 53.46875 35.484375Q52.84375 35.0625 52.5 34.328125Q52.15625 33.59375 52.15625 32.640625Q52.15625 31.71875 52.46875 30.953125Q52.78125 30.1875 53.40625 29.796875Q54.03125 29.390625 54.796875 29.390625Q55.359375 29.390625 55.796875 29.625Q56.234375 29.859375 56.515625 30.234375L56.515625 27.15625L57.5625 27.15625L57.5625 35.75L56.578125 35.75ZM53.25 32.640625Q53.25 33.84375 53.75 34.4375Q54.25 35.015625 54.9375 35.015625Q55.625 35.015625 56.109375 34.453125Q56.59375 33.890625 56.59375 32.734375Q56.59375 31.453125 56.09375 30.859375Q55.609375 30.265625 54.890625 30.265625Q54.1875 30.265625 53.71875 30.84375Q53.25 31.40625 53.25 32.640625ZM59.546875 28.375L59.546875 27.15625L60.609375 27.15625L60.609375 28.375L59.546875 28.375ZM59.546875 35.75L59.546875 29.53125L60.609375 29.53125L60.609375 35.75L59.546875 35.75ZM64.84375 34.8125L65.0 35.734375Q64.546875 35.828125 64.203125 35.828125Q63.625 35.828125 63.3125 35.65625Q63.0 35.46875 62.859375 35.171875Q62.734375 34.875 62.734375 33.921875L62.734375 30.34375L61.96875 30.34375L61.96875 29.53125L62.734375 29.53125L62.734375 27.984375L63.78125 27.359375L63.78125 29.53125L64.84375 29.53125L64.84375 30.34375L63.78125 30.34375L63.78125 33.984375Q63.78125 34.4375 63.828125 34.5625Q63.890625 34.6875 64.015625 34.765625Q64.140625 34.84375 64.375 34.84375Q64.5625 34.84375 64.84375 34.8125ZM65.5 38.140625L65.375 37.15625Q65.71875 37.25 65.984375 37.25Q66.328125 37.25 66.53125 37.125Q66.75 37.015625 66.890625 36.8125Q66.984375 36.640625 67.21875 36.015625Q67.234375 35.9375 67.3125 35.765625L64.9375 29.53125L66.078125 29.53125L67.375 33.125Q67.625 33.8125 67.828125 34.578125Q68.015625 33.84375 68.265625 33.15625L69.59375 29.53125L70.640625 29.53125L68.28125 35.859375Q67.890625 36.875 67.6875 37.265625Q67.40625 37.796875 67.03125 38.03125Q66.671875 38.28125 66.171875 38.28125Q65.875 38.28125 65.5 38.140625ZM73.546875 38.140625L73.546875 29.53125L74.5 29.53125L74.5 30.328125Q74.84375 29.859375 75.265625 29.625Q75.703125 29.390625 76.3125 29.390625Q77.109375 29.390625 77.71875 29.796875Q78.328125 30.203125 78.625 30.953125Q78.9375 31.703125 78.9375 32.59375Q78.9375 33.546875 78.59375 34.3125Q78.265625 35.078125 77.609375 35.484375Q76.953125 35.890625 76.234375 35.890625Q75.703125 35.890625 75.28125 35.671875Q74.859375 35.4375 74.59375 35.109375L74.59375 38.140625L73.546875 38.140625ZM74.5 32.671875Q74.5 33.875 74.984375 34.453125Q75.46875 35.015625 76.15625 35.015625Q76.859375 35.015625 77.359375 34.421875Q77.859375 33.828125 77.859375 32.578125Q77.859375 31.390625 77.375 30.8125Q76.890625 30.21875 76.203125 30.21875Q75.53125 30.21875 75.015625 30.84375Q74.5 31.46875 74.5 32.671875ZM80.53125 35.75L80.53125 29.53125L81.484375 29.53125L81.484375 30.46875Q81.84375 29.8125 82.140625 29.609375Q82.453125 29.390625 82.828125 29.390625Q83.359375 29.390625 83.90625 29.71875L83.546875 30.703125Q83.15625 30.46875 82.78125 30.46875Q82.421875 30.46875 82.140625 30.6875Q81.875 30.890625 81.765625 31.265625Q81.578125 31.828125 81.578125 32.484375L81.578125 35.75L80.53125 35.75ZM84.15625 32.640625Q84.15625 30.90625 85.109375 30.078125Q85.90625 29.390625 87.0625 29.390625Q88.34375 29.390625 89.15625 30.234375Q89.984375 31.0625 89.984375 32.546875Q89.984375 33.75 89.625 34.4375Q89.265625 35.125 88.5625 35.515625Q87.875 35.890625 87.0625 35.890625Q85.765625 35.890625 84.953125 35.0625Q84.15625 34.21875 84.15625 32.640625ZM85.234375 32.640625Q85.234375 33.828125 85.75 34.421875Q86.28125 35.015625 87.0625 35.015625Q87.859375 35.015625 88.375 34.421875Q88.890625 33.828125 88.890625 32.609375Q88.890625 31.453125 88.359375 30.859375Q87.84375 30.265625 87.0625 30.265625Q86.28125 30.265625 85.75 30.859375Q85.234375 31.4375 85.234375 32.640625ZM93.265625 35.75L90.90625 29.53125L92.015625 29.53125L93.359375 33.25Q93.5625 33.859375 93.75 34.5Q93.890625 34.015625 94.140625 33.328125L95.53125 29.53125L96.609375 29.53125L94.25 35.75L93.265625 35.75ZM96.546875 28.375L96.546875 27.15625L97.609375 27.15625L97.609375 28.375L96.546875 28.375ZM96.546875 35.75L96.546875 29.53125L97.609375 29.53125L97.609375 35.75L96.546875 35.75ZM99.125 33.890625L100.15625 33.734375Q100.25 34.359375 100.640625 34.6875Q101.046875 35.015625 101.78125 35.015625Q102.5 35.015625 102.84375 34.734375Q103.203125 34.4375 103.203125 34.03125Q103.203125 33.671875 102.890625 33.46875Q102.671875 33.328125 101.8125 33.109375Q100.65625 32.8125 100.203125 32.609375Q99.765625 32.390625 99.53125 32.015625Q99.296875 31.640625 99.296875 31.171875Q99.296875 30.765625 99.484375 30.40625Q99.671875 30.046875 100.0 29.8125Q100.25 29.640625 100.671875 29.515625Q101.09375 29.390625 101.59375 29.390625Q102.3125 29.390625 102.859375 29.609375Q103.421875 29.8125 103.6875 30.171875Q103.953125 30.53125 104.046875 31.125L103.015625 31.265625Q102.953125 30.796875 102.609375 30.53125Q102.28125 30.25 101.65625 30.25Q100.9375 30.25 100.625 30.5Q100.3125 30.734375 100.3125 31.0625Q100.3125 31.265625 100.4375 31.421875Q100.578125 31.59375 100.84375 31.703125Q101.0 31.765625 101.78125 31.96875Q102.90625 32.28125 103.34375 32.46875Q103.78125 32.65625 104.03125 33.015625Q104.28125 33.375 104.28125 33.921875Q104.28125 34.453125 103.96875 34.921875Q103.671875 35.375 103.09375 35.640625Q102.515625 35.890625 101.78125 35.890625Q100.5625 35.890625 99.921875 35.390625Q99.296875 34.875 99.125 33.890625ZM106.546875 28.375L106.546875 27.15625L107.609375 27.15625L107.609375 28.375L106.546875 28.375ZM106.546875 35.75L106.546875 29.53125L107.609375 29.53125L107.609375 35.75L106.546875 35.75ZM109.15625 32.640625Q109.15625 30.90625 110.109375 30.078125Q110.90625 29.390625 112.0625 29.390625Q113.34375 29.390625 114.15625 30.234375Q114.984375 31.0625 114.984375 32.546875Q114.984375 33.75 114.625 34.4375Q114.265625 35.125 113.5625 35.515625Q112.875 35.890625 112.0625 35.890625Q110.765625 35.890625 109.953125 35.0625Q109.15625 34.21875 109.15625 32.640625ZM110.234375 32.640625Q110.234375 33.828125 110.75 34.421875Q111.28125 35.015625 112.0625 35.015625Q112.859375 35.015625 113.375 34.421875Q113.890625 33.828125 113.890625 32.609375Q113.890625 31.453125 113.359375 30.859375Q112.84375 30.265625 112.0625 30.265625Q111.28125 30.265625 110.75 30.859375Q110.234375 31.4375 110.234375 32.640625ZM116.546875 35.75L116.546875 29.53125L117.484375 29.53125L117.484375 30.40625Q118.171875 29.390625 119.46875 29.390625Q120.03125 29.390625 120.5 29.59375Q120.984375 29.796875 121.21875 30.125Q121.453125 30.453125 121.546875 30.890625Q121.59375 31.1875 121.59375 31.921875L121.59375 35.75L120.546875 35.75L120.546875 31.96875Q120.546875 31.3125 120.421875 31.0Q120.296875 30.6875 119.984375 30.5Q119.671875 30.296875 119.25 30.296875Q118.578125 30.296875 118.078125 30.734375Q117.59375 31.15625 117.59375 32.34375L117.59375 35.75L116.546875 35.75Z" fill-rule="nonzero"/><path fill="#9e9e9e" d="M25.25 50.484375L26.3125 50.34375Q26.484375 51.234375 26.921875 51.640625Q27.359375 52.03125 27.984375 52.03125Q28.734375 52.03125 29.25 51.515625Q29.765625 51.0 29.765625 50.234375Q29.765625 49.515625 29.28125 49.046875Q28.8125 48.5625 28.078125 48.5625Q27.78125 48.5625 27.328125 48.6875L27.453125 47.75Q27.5625 47.765625 27.625 47.765625Q28.296875 47.765625 28.828125 47.421875Q29.375 47.0625 29.375 46.328125Q29.375 45.75 28.984375 45.375Q28.59375 44.984375 27.96875 44.984375Q27.359375 44.984375 26.9375 45.375Q26.53125 45.765625 26.421875 46.53125L25.359375 46.34375Q25.546875 45.296875 26.234375 44.71875Q26.921875 44.125 27.9375 44.125Q28.640625 44.125 29.234375 44.4375Q29.828125 44.734375 30.140625 45.25Q30.453125 45.765625 30.453125 46.359375Q30.453125 46.90625 30.15625 47.375Q29.859375 47.828125 29.28125 48.09375Q30.03125 48.265625 30.453125 48.828125Q30.875 49.375 30.875 50.21875Q30.875 51.34375 30.046875 52.125Q29.234375 52.90625 27.984375 52.90625Q26.859375 52.90625 26.109375 52.234375Q25.359375 51.546875 25.25 50.484375ZM32.84375 52.75L32.84375 51.546875L34.046875 51.546875L34.046875 52.75L32.84375 52.75ZM40.796875 51.734375L40.796875 52.75L35.109375 52.75Q35.109375 52.375 35.234375 52.015625Q35.453125 51.4375 35.921875 50.875Q36.40625 50.3125 37.3125 49.578125Q38.71875 48.421875 39.203125 47.75Q39.703125 47.078125 39.703125 46.484375Q39.703125 45.859375 39.25 45.4375Q38.796875 45.0 38.078125 45.0Q37.3125 45.0 36.859375 45.453125Q36.40625 45.90625 36.390625 46.71875L35.3125 46.609375Q35.421875 45.390625 36.140625 44.765625Q36.875 44.125 38.109375 44.125Q39.34375 44.125 40.0625 44.8125Q40.78125 45.5 40.78125 46.515625Q40.78125 47.03125 40.5625 47.53125Q40.359375 48.015625 39.859375 48.578125Q39.375 49.125 38.25 50.078125Q37.296875 50.875 37.015625 51.171875Q36.75 51.453125 36.578125 51.734375L40.796875 51.734375ZM42.453125 46.21875Q42.453125 45.296875 42.90625 44.65625Q43.375 44.015625 44.25 44.015625Q45.0625 44.015625 45.59375 44.59375Q46.125 45.171875 46.125 46.28125Q46.125 47.375 45.578125 47.96875Q45.046875 48.546875 44.265625 48.546875Q43.484375 48.546875 42.96875 47.96875Q42.453125 47.390625 42.453125 46.21875ZM44.28125 44.734375Q43.890625 44.734375 43.625 45.078125Q43.375 45.421875 43.375 46.328125Q43.375 47.15625 43.625 47.5Q43.890625 47.828125 44.28125 47.828125Q44.6875 47.828125 44.9375 47.484375Q45.203125 47.140625 45.203125 46.25Q45.203125 45.40625 44.9375 45.078125Q44.671875 44.734375 44.28125 44.734375ZM44.28125 53.0625L48.984375 44.015625L49.84375 44.015625L45.15625 53.0625L44.28125 53.0625ZM48.0 50.734375Q48.0 49.8125 48.453125 49.171875Q48.921875 48.53125 49.8125 48.53125Q50.625 48.53125 51.15625 49.109375Q51.6875 49.671875 51.6875 50.796875Q51.6875 51.890625 51.140625 52.484375Q50.609375 53.0625 49.8125 53.0625Q49.046875 53.0625 48.515625 52.484375Q48.0 51.90625 48.0 50.734375ZM49.84375 49.25Q49.4375 49.25 49.171875 49.59375Q48.921875 49.9375 48.921875 50.84375Q48.921875 51.65625 49.1875 52.0Q49.453125 52.34375 49.84375 52.34375Q50.234375 52.34375 50.5 52.0Q50.765625 51.65625 50.765625 50.75Q50.765625 49.921875 50.5 49.59375Q50.234375 49.25 49.84375 49.25Z" fill-rule="nonzero"/><path stroke="#757575" stroke-width="1.0" stroke-linecap="butt" d="M24.75 40.25L239.25 40.25L446.7622 36.95593" fill-rule="nonzero"/><path fill="#9e9e9e" d="M448.7622 36.95593C448.7622 35.85136 447.8668 34.95593 446.7622 34.95593C445.65762 34.95593 444.7622 35.85136 444.7622 36.95593C444.7622 38.060497 445.65762 38.95593 446.7622 38.95593C447.8668 38.95593 448.7622 38.060497 448.7622 36.95593" fill-rule="nonzero"/><path fill="#1a1a1a" d="M25.671875 66.75L25.671875 58.15625L28.921875 58.15625Q29.765625 58.15625 30.21875 58.234375Q30.859375 58.34375 31.28125 58.640625Q31.71875 58.9375 31.96875 59.46875Q32.234375 60.0 32.234375 60.640625Q32.234375 61.734375 31.53125 62.5Q30.84375 63.25 29.015625 63.25L26.8125 63.25L26.8125 66.75L25.671875 66.75ZM26.8125 62.25L29.03125 62.25Q30.140625 62.25 30.59375 61.84375Q31.0625 61.421875 31.0625 60.671875Q31.0625 60.140625 30.78125 59.765625Q30.515625 59.375 30.078125 59.25Q29.78125 59.171875 29.015625 59.171875L26.8125 59.171875L26.8125 62.25ZM37.625 66.75L37.625 65.828125Q36.890625 66.890625 35.640625 66.890625Q35.09375 66.890625 34.609375 66.6875Q34.140625 66.46875 33.90625 66.15625Q33.671875 65.828125 33.578125 65.359375Q33.515625 65.0625 33.515625 64.375L33.515625 60.53125L34.578125 60.53125L34.578125 63.984375Q34.578125 64.796875 34.640625 65.09375Q34.734375 65.5 35.046875 65.75Q35.375 65.984375 35.859375 65.984375Q36.328125 65.984375 36.734375 65.75Q37.15625 65.5 37.328125 65.078125Q37.515625 64.65625 37.515625 63.859375L37.515625 60.53125L38.5625 60.53125L38.5625 66.75L37.625 66.75ZM41.515625 66.75L40.53125 66.75L40.53125 58.15625L41.59375 58.15625L41.59375 61.21875Q42.265625 60.390625 43.296875 60.390625Q43.875 60.390625 44.375 60.625Q44.890625 60.84375 45.21875 61.265625Q45.5625 61.6875 45.75 62.28125Q45.9375 62.875 45.9375 63.546875Q45.9375 65.140625 45.140625 66.015625Q44.34375 66.890625 43.25 66.890625Q42.140625 66.890625 41.515625 65.96875L41.515625 66.75ZM41.5 63.59375Q41.5 64.703125 41.8125 65.203125Q42.3125 66.015625 43.15625 66.015625Q43.84375 66.015625 44.34375 65.421875Q44.859375 64.828125 44.859375 63.625Q44.859375 62.40625 44.375 61.828125Q43.890625 61.25 43.203125 61.25Q42.515625 61.25 42.0 61.859375Q41.5 62.453125 41.5 63.59375ZM47.515625 66.75L47.515625 58.15625L48.578125 58.15625L48.578125 66.75L47.515625 66.75ZM50.546875 59.375L50.546875 58.15625L51.609375 58.15625L51.609375 59.375L50.546875 59.375ZM50.546875 66.75L50.546875 60.53125L51.609375 60.53125L51.609375 66.75L50.546875 66.75ZM57.609375 64.46875L58.640625 64.609375Q58.46875 65.671875 57.765625 66.28125Q57.0625 66.890625 56.046875 66.890625Q54.765625 66.890625 53.984375 66.0625Q53.21875 65.21875 53.21875 63.65625Q53.21875 62.65625 53.546875 61.90625Q53.890625 61.140625 54.5625 60.765625Q55.25 60.390625 56.0625 60.390625Q57.0625 60.390625 57.703125 60.90625Q58.359375 61.40625 58.546875 62.359375L57.515625 62.515625Q57.375 61.890625 57.0 61.578125Q56.625 61.25 56.09375 61.25Q55.296875 61.25 54.796875 61.828125Q54.296875 62.390625 54.296875 63.625Q54.296875 64.890625 54.78125 65.453125Q55.265625 66.015625 56.03125 66.015625Q56.65625 66.015625 57.0625 65.640625Q57.484375 65.265625 57.609375 64.46875ZM62.296875 63.984375L63.359375 63.890625Q63.4375 64.546875 63.71875 64.953125Q64.0 65.359375 64.578125 65.625Q65.171875 65.875 65.90625 65.875Q66.546875 65.875 67.046875 65.6875Q67.546875 65.484375 67.78125 65.15625Q68.03125 64.8125 68.03125 64.421875Q68.03125 64.015625 67.796875 63.71875Q67.5625 63.40625 67.03125 63.203125Q66.671875 63.0625 65.484375 62.78125Q64.3125 62.5 63.84375 62.25Q63.21875 61.921875 62.921875 61.453125Q62.625 60.96875 62.625 60.375Q62.625 59.734375 62.984375 59.171875Q63.359375 58.59375 64.0625 58.3125Q64.78125 58.015625 65.640625 58.015625Q66.59375 58.015625 67.328125 58.328125Q68.0625 58.625 68.453125 59.234375Q68.84375 59.828125 68.875 60.578125L67.78125 60.65625Q67.6875 59.84375 67.171875 59.4375Q66.671875 59.015625 65.6875 59.015625Q64.65625 59.015625 64.1875 59.390625Q63.71875 59.765625 63.71875 60.296875Q63.71875 60.765625 64.046875 61.0625Q64.375 61.359375 65.75 61.671875Q67.140625 61.984375 67.65625 62.21875Q68.40625 62.578125 68.765625 63.109375Q69.125 63.625 69.125 64.328125Q69.125 65.015625 68.734375 65.625Q68.34375 66.21875 67.609375 66.5625Q66.875 66.890625 65.953125 66.890625Q64.78125 66.890625 63.984375 66.5625Q63.203125 66.21875 62.75 65.53125Q62.3125 64.84375 62.296875 63.984375ZM74.609375 65.984375Q74.015625 66.484375 73.46875 66.6875Q72.9375 66.890625 72.3125 66.890625Q71.28125 66.890625 70.734375 66.390625Q70.1875 65.890625 70.1875 65.109375Q70.1875 64.65625 70.390625 64.28125Q70.59375 63.890625 70.9375 63.671875Q71.28125 63.4375 71.703125 63.328125Q72.0 63.234375 72.640625 63.15625Q73.90625 63.015625 74.515625 62.796875Q74.515625 62.578125 74.515625 62.53125Q74.515625 61.875 74.21875 61.609375Q73.8125 61.265625 73.015625 61.265625Q72.28125 61.265625 71.921875 61.53125Q71.5625 61.78125 71.390625 62.4375L70.359375 62.296875Q70.5 61.640625 70.828125 61.234375Q71.15625 60.828125 71.765625 60.609375Q72.375 60.390625 73.171875 60.390625Q73.96875 60.390625 74.46875 60.578125Q74.96875 60.765625 75.203125 61.046875Q75.4375 61.328125 75.53125 61.765625Q75.578125 62.03125 75.578125 62.734375L75.578125 64.140625Q75.578125 65.609375 75.640625 66.0Q75.71875 66.390625 75.921875 66.75L74.8125 66.75Q74.65625 66.421875 74.609375 65.984375ZM74.515625 63.625Q73.9375 63.859375 72.796875 64.03125Q72.140625 64.125 71.875 64.25Q71.609375 64.359375 71.453125 64.578125Q71.3125 64.796875 71.3125 65.078125Q71.3125 65.5 71.625 65.78125Q71.953125 66.0625 72.5625 66.0625Q73.171875 66.0625 73.640625 65.796875Q74.125 65.53125 74.34375 65.0625Q74.515625 64.703125 74.515625 64.015625L74.515625 63.625ZM77.515625 66.75L77.515625 58.15625L78.578125 58.15625L78.578125 66.75L77.515625 66.75ZM84.796875 64.75L85.890625 64.875Q85.640625 65.828125 84.9375 66.359375Q84.234375 66.890625 83.15625 66.890625Q81.796875 66.890625 80.984375 66.046875Q80.1875 65.203125 80.1875 63.6875Q80.1875 62.125 81.0 61.265625Q81.8125 60.390625 83.09375 60.390625Q84.34375 60.390625 85.125 61.234375Q85.921875 62.078125 85.921875 63.625Q85.921875 63.71875 85.921875 63.90625L81.28125 63.90625Q81.34375 64.9375 81.859375 65.484375Q82.375 66.015625 83.15625 66.015625Q83.734375 66.015625 84.140625 65.71875Q84.5625 65.40625 84.796875 64.75ZM81.34375 63.046875L84.8125 63.046875Q84.75 62.25 84.421875 61.859375Q83.90625 61.25 83.109375 61.25Q82.375 61.25 81.875 61.734375Q81.390625 62.21875 81.34375 63.046875Z" fill-rule="nonzero"/><path fill="#9e9e9e" d="M25.25 81.484375L26.3125 81.34375Q26.484375 82.234375 26.921875 82.640625Q27.359375 83.03125 27.984375 83.03125Q28.734375 83.03125 29.25 82.515625Q29.765625 82.0 29.765625 81.234375Q29.765625 80.515625 29.28125 80.046875Q28.8125 79.5625 28.078125 79.5625Q27.78125 79.5625 27.328125 79.6875L27.453125 78.75Q27.5625 78.765625 27.625 78.765625Q28.296875 78.765625 28.828125 78.421875Q29.375 78.0625 29.375 77.328125Q29.375 76.75 28.984375 76.375Q28.59375 75.984375 27.96875 75.984375Q27.359375 75.984375 26.9375 76.375Q26.53125 76.765625 26.421875 77.53125L25.359375 77.34375Q25.546875 76.296875 26.234375 75.71875Q26.921875 75.125 27.9375 75.125Q28.640625 75.125 29.234375 75.4375Q29.828125 75.734375 30.140625 76.25Q30.453125 76.765625 30.453125 77.359375Q30.453125 77.90625 30.15625 78.375Q29.859375 78.828125 29.28125 79.09375Q30.03125 79.265625 30.453125 79.828125Q30.875 80.375 30.875 81.21875Q30.875 82.34375 30.046875 83.125Q29.234375 83.90625 27.984375 83.90625Q26.859375 83.90625 26.109375 83.234375Q25.359375 82.546875 25.25 81.484375ZM32.84375 83.75L32.84375 82.546875L34.046875 82.546875L34.046875 83.75L32.84375 83.75ZM35.25 79.515625Q35.25 77.984375 35.5625 77.0625Q35.875 76.125 36.484375 75.625Q37.109375 75.125 38.046875 75.125Q38.734375 75.125 39.25 75.40625Q39.78125 75.6875 40.125 76.21875Q40.46875 76.734375 40.65625 77.484375Q40.84375 78.234375 40.84375 79.515625Q40.84375 81.03125 40.53125 81.953125Q40.234375 82.875 39.609375 83.390625Q39.0 83.890625 38.046875 83.890625Q36.8125 83.890625 36.09375 83.0Q35.25 81.9375 35.25 79.515625ZM36.328125 79.515625Q36.328125 81.625 36.828125 82.328125Q37.328125 83.03125 38.046875 83.03125Q38.78125 83.03125 39.265625 82.328125Q39.765625 81.625 39.765625 79.515625Q39.765625 77.390625 39.265625 76.703125Q38.78125 76.0 38.03125 76.0Q37.3125 76.0 36.875 76.609375Q36.328125 77.390625 36.328125 79.515625ZM42.453125 77.21875Q42.453125 76.296875 42.90625 75.65625Q43.375 75.015625 44.25 75.015625Q45.0625 75.015625 45.59375 75.59375Q46.125 76.171875 46.125 77.28125Q46.125 78.375 45.578125 78.96875Q45.046875 79.546875 44.265625 79.546875Q43.484375 79.546875 42.96875 78.96875Q42.453125 78.390625 42.453125 77.21875ZM44.28125 75.734375Q43.890625 75.734375 43.625 76.078125Q43.375 76.421875 43.375 77.328125Q43.375 78.15625 43.625 78.5Q43.890625 78.828125 44.28125 78.828125Q44.6875 78.828125 44.9375 78.484375Q45.203125 78.140625 45.203125 77.25Q45.203125 76.40625 44.9375 76.078125Q44.671875 75.734375 44.28125 75.734375ZM44.28125 84.0625L48.984375 75.015625L49.84375 75.015625L45.15625 84.0625L44.28125 84.0625ZM48.0 81.734375Q48.0 80.8125 48.453125 80.171875Q48.921875 79.53125 49.8125 79.53125Q50.625 79.53125 51.15625 80.109375Q51.6875 80.671875 51.6875 81.796875Q51.6875 82.890625 51.140625 83.484375Q50.609375 84.0625 49.8125 84.0625Q49.046875 84.0625 48.515625 83.484375Q48.0 82.90625 48.0 81.734375ZM49.84375 80.25Q49.4375 80.25 49.171875 80.59375Q48.921875 80.9375 48.921875 81.84375Q48.921875 82.65625 49.1875 83.0Q49.453125 83.34375 49.84375 83.34375Q50.234375 83.34375 50.5 83.0Q50.765625 82.65625 50.765625 81.75Q50.765625 80.921875 50.5 80.59375Q50.234375 80.25 49.84375 80.25Z" fill-rule="nonzero"/><path stroke="#757575" stroke-width="1.0" stroke-linecap="butt" d="M24.75 71.25L239.25 71.25L406.41312 45.04777" fill-rule="nonzero"/><path fill="#9e9e9e" d="M408.41312 45.04777C408.41312 43.943203 407.51767 43.04777 406.41312 43.04777C405.30853 43.04777 404.41312 43.943203 404.41312 45.04777C404.41312 46.15234 405.30853 47.04777 406.41312 47.04777C407.51767 47.04777 408.41312 46.15234 408.41312 45.04777" fill-rule="nonzero"/><path fill="#1a1a1a" d="M25.671875 97.75L25.671875 89.15625L28.921875 89.15625Q29.765625 89.15625 30.21875 89.234375Q30.859375 89.34375 31.28125 89.640625Q31.71875 89.9375 31.96875 90.46875Q32.234375 91.0 32.234375 91.640625Q32.234375 92.734375 31.53125 93.5Q30.84375 94.25 29.015625 94.25L26.8125 94.25L26.8125 97.75L25.671875 97.75ZM26.8125 93.25L29.03125 93.25Q30.140625 93.25 30.59375 92.84375Q31.0625 92.421875 31.0625 91.671875Q31.0625 91.140625 30.78125 90.765625Q30.515625 90.375 30.078125 90.25Q29.78125 90.171875 29.015625 90.171875L26.8125 90.171875L26.8125 93.25ZM33.53125 97.75L33.53125 91.53125L34.484375 91.53125L34.484375 92.46875Q34.84375 91.8125 35.140625 91.609375Q35.453125 91.390625 35.828125 91.390625Q36.359375 91.390625 36.90625 91.71875L36.546875 92.703125Q36.15625 92.46875 35.78125 92.46875Q35.421875 92.46875 35.140625 92.6875Q34.875 92.890625 34.765625 93.265625Q34.578125 93.828125 34.578125 94.484375L34.578125 97.75L33.53125 97.75ZM37.546875 90.375L37.546875 89.15625L38.609375 89.15625L38.609375 90.375L37.546875 90.375ZM37.546875 97.75L37.546875 91.53125L38.609375 91.53125L38.609375 97.75L37.546875 97.75ZM42.265625 97.75L39.90625 91.53125L41.015625 91.53125L42.359375 95.25Q42.5625 95.859375 42.75 96.5Q42.890625 96.015625 43.140625 95.328125L44.53125 91.53125L45.609375 91.53125L43.25 97.75L42.265625 97.75ZM49.609375 96.984375Q49.015625 97.484375 48.46875 97.6875Q47.9375 97.890625 47.3125 97.890625Q46.28125 97.890625 45.734375 97.390625Q45.1875 96.890625 45.1875 96.109375Q45.1875 95.65625 45.390625 95.28125Q45.59375 94.890625 45.9375 94.671875Q46.28125 94.4375 46.703125 94.328125Q47.0 94.234375 47.640625 94.15625Q48.90625 94.015625 49.515625 93.796875Q49.515625 93.578125 49.515625 93.53125Q49.515625 92.875 49.21875 92.609375Q48.8125 92.265625 48.015625 92.265625Q47.28125 92.265625 46.921875 92.53125Q46.5625 92.78125 46.390625 93.4375L45.359375 93.296875Q45.5 92.640625 45.828125 92.234375Q46.15625 91.828125 46.765625 91.609375Q47.375 91.390625 48.171875 91.390625Q48.96875 91.390625 49.46875 91.578125Q49.96875 91.765625 50.203125 92.046875Q50.4375 92.328125 50.53125 92.765625Q50.578125 93.03125 50.578125 93.734375L50.578125 95.140625Q50.578125 96.609375 50.640625 97.0Q50.71875 97.390625 50.921875 97.75L49.8125 97.75Q49.65625 97.421875 49.609375 96.984375ZM49.515625 94.625Q48.9375 94.859375 47.796875 95.03125Q47.140625 95.125 46.875 95.25Q46.609375 95.359375 46.453125 95.578125Q46.3125 95.796875 46.3125 96.078125Q46.3125 96.5 46.625 96.78125Q46.953125 97.0625 47.5625 97.0625Q48.171875 97.0625 48.640625 96.796875Q49.125 96.53125 49.34375 96.0625Q49.515625 95.703125 49.515625 95.015625L49.515625 94.625ZM54.84375 96.8125L55.0 97.734375Q54.546875 97.828125 54.203125 97.828125Q53.625 97.828125 53.3125 97.65625Q53.0 97.46875 52.859375 97.171875Q52.734375 96.875 52.734375 95.921875L52.734375 92.34375L51.96875 92.34375L51.96875 91.53125L52.734375 91.53125L52.734375 89.984375L53.78125 89.359375L53.78125 91.53125L54.84375 91.53125L54.84375 92.34375L53.78125 92.34375L53.78125 95.984375Q53.78125 96.4375 53.828125 96.5625Q53.890625 96.6875 54.015625 96.765625Q54.140625 96.84375 54.375 96.84375Q54.5625 96.84375 54.84375 96.8125ZM59.796875 95.75L60.890625 95.875Q60.640625 96.828125 59.9375 97.359375Q59.234375 97.890625 58.15625 97.890625Q56.796875 97.890625 55.984375 97.046875Q55.1875 96.203125 55.1875 94.6875Q55.1875 93.125 56.0 92.265625Q56.8125 91.390625 58.09375 91.390625Q59.34375 91.390625 60.125 92.234375Q60.921875 93.078125 60.921875 94.625Q60.921875 94.71875 60.921875 94.90625L56.28125 94.90625Q56.34375 95.9375 56.859375 96.484375Q57.375 97.015625 58.15625 97.015625Q58.734375 97.015625 59.140625 96.71875Q59.5625 96.40625 59.796875 95.75ZM56.34375 94.046875L59.8125 94.046875Q59.75 93.25 59.421875 92.859375Q58.90625 92.25 58.109375 92.25Q57.375 92.25 56.875 92.734375Q56.390625 93.21875 56.34375 94.046875ZM65.296875 94.984375L66.359375 94.890625Q66.4375 95.546875 66.71875 95.953125Q67.0 96.359375 67.578125 96.625Q68.171875 96.875 68.90625 96.875Q69.546875 96.875 70.046875 96.6875Q70.546875 96.484375 70.78125 96.15625Q71.03125 95.8125 71.03125 95.421875Q71.03125 95.015625 70.796875 94.71875Q70.5625 94.40625 70.03125 94.203125Q69.671875 94.0625 68.484375 93.78125Q67.3125 93.5 66.84375 93.25Q66.21875 92.921875 65.921875 92.453125Q65.625 91.96875 65.625 91.375Q65.625 90.734375 65.984375 90.171875Q66.359375 89.59375 67.0625 89.3125Q67.78125 89.015625 68.640625 89.015625Q69.59375 89.015625 70.328125 89.328125Q71.0625 89.625 71.453125 90.234375Q71.84375 90.828125 71.875 91.578125L70.78125 91.65625Q70.6875 90.84375 70.171875 90.4375Q69.671875 90.015625 68.6875 90.015625Q67.65625 90.015625 67.1875 90.390625Q66.71875 90.765625 66.71875 91.296875Q66.71875 91.765625 67.046875 92.0625Q67.375 92.359375 68.75 92.671875Q70.140625 92.984375 70.65625 93.21875Q71.40625 93.578125 71.765625 94.109375Q72.125 94.625 72.125 95.328125Q72.125 96.015625 71.734375 96.625Q71.34375 97.21875 70.609375 97.5625Q69.875 97.890625 68.953125 97.890625Q67.78125 97.890625 66.984375 97.5625Q66.203125 97.21875 65.75 96.53125Q65.3125 95.84375 65.296875 94.984375ZM77.609375 96.984375Q77.015625 97.484375 76.46875 97.6875Q75.9375 97.890625 75.3125 97.890625Q74.28125 97.890625 73.734375 97.390625Q73.1875 96.890625 73.1875 96.109375Q73.1875 95.65625 73.390625 95.28125Q73.59375 94.890625 73.9375 94.671875Q74.28125 94.4375 74.703125 94.328125Q75.0 94.234375 75.640625 94.15625Q76.90625 94.015625 77.515625 93.796875Q77.515625 93.578125 77.515625 93.53125Q77.515625 92.875 77.21875 92.609375Q76.8125 92.265625 76.015625 92.265625Q75.28125 92.265625 74.921875 92.53125Q74.5625 92.78125 74.390625 93.4375L73.359375 93.296875Q73.5 92.640625 73.828125 92.234375Q74.15625 91.828125 74.765625 91.609375Q75.375 91.390625 76.171875 91.390625Q76.96875 91.390625 77.46875 91.578125Q77.96875 91.765625 78.203125 92.046875Q78.4375 92.328125 78.53125 92.765625Q78.578125 93.03125 78.578125 93.734375L78.578125 95.140625Q78.578125 96.609375 78.640625 97.0Q78.71875 97.390625 78.921875 97.75L77.8125 97.75Q77.65625 97.421875 77.609375 96.984375ZM77.515625 94.625Q76.9375 94.859375 75.796875 95.03125Q75.140625 95.125 74.875 95.25Q74.609375 95.359375 74.453125 95.578125Q74.3125 95.796875 74.3125 96.078125Q74.3125 96.5 74.625 96.78125Q74.953125 97.0625 75.5625 97.0625Q76.171875 97.0625 76.640625 96.796875Q77.125 96.53125 77.34375 96.0625Q77.515625 95.703125 77.515625 95.015625L77.515625 94.625ZM80.515625 97.75L80.515625 89.15625L81.578125 89.15625L81.578125 97.75L80.515625 97.75ZM87.796875 95.75L88.890625 95.875Q88.640625 96.828125 87.9375 97.359375Q87.234375 97.890625 86.15625 97.890625Q84.796875 97.890625 83.984375 97.046875Q83.1875 96.203125 83.1875 94.6875Q83.1875 93.125 84.0 92.265625Q84.8125 91.390625 86.09375 91.390625Q87.34375 91.390625 88.125 92.234375Q88.921875 93.078125 88.921875 94.625Q88.921875 94.71875 88.921875 94.90625L84.28125 94.90625Q84.34375 95.9375 84.859375 96.484375Q85.375 97.015625 86.15625 97.015625Q86.734375 97.015625 87.140625 96.71875Q87.5625 96.40625 87.796875 95.75ZM84.34375 94.046875L87.8125 94.046875Q87.75 93.25 87.421875 92.859375Q86.90625 92.25 86.109375 92.25Q85.375 92.25 84.875 92.734375Q84.390625 93.21875 84.34375 94.046875Z" fill-rule="nonzero"/><path fill="#9e9e9e" d="M29.21875 114.75L28.171875 114.75L28.171875 108.03125Q27.78125 108.390625 27.15625 108.765625Q26.546875 109.125 26.0625 109.296875L26.0625 108.28125Q26.9375 107.859375 27.59375 107.28125Q28.265625 106.6875 28.546875 106.125L29.21875 106.125L29.21875 114.75ZM36.21875 114.75L35.171875 114.75L35.171875 108.03125Q34.78125 108.390625 34.15625 108.765625Q33.546875 109.125 33.0625 109.296875L33.0625 108.28125Q33.9375 107.859375 34.59375 107.28125Q35.265625 106.6875 35.546875 106.125L36.21875 106.125L36.21875 114.75ZM39.84375 114.75L39.84375 113.546875L41.046875 113.546875L41.046875 114.75L39.84375 114.75ZM42.25 110.515625Q42.25 108.984375 42.5625 108.0625Q42.875 107.125 43.484375 106.625Q44.109375 106.125 45.046875 106.125Q45.734375 106.125 46.25 106.40625Q46.78125 106.6875 47.125 107.21875Q47.46875 107.734375 47.65625 108.484375Q47.84375 109.234375 47.84375 110.515625Q47.84375 112.03125 47.53125 112.953125Q47.234375 113.875 46.609375 114.390625Q46.0 114.890625 45.046875 114.890625Q43.8125 114.890625 43.09375 114.0Q42.25 112.9375 42.25 110.515625ZM43.328125 110.515625Q43.328125 112.625 43.828125 113.328125Q44.328125 114.03125 45.046875 114.03125Q45.78125 114.03125 46.265625 113.328125Q46.765625 112.625 46.765625 110.515625Q46.765625 108.390625 46.265625 107.703125Q45.78125 107.0 45.03125 107.0Q44.3125 107.0 43.875 107.609375Q43.328125 108.390625 43.328125 110.515625ZM49.453125 108.21875Q49.453125 107.296875 49.90625 106.65625Q50.375 106.015625 51.25 106.015625Q52.0625 106.015625 52.59375 106.59375Q53.125 107.171875 53.125 108.28125Q53.125 109.375 52.578125 109.96875Q52.046875 110.546875 51.265625 110.546875Q50.484375 110.546875 49.96875 109.96875Q49.453125 109.390625 49.453125 108.21875ZM51.28125 106.734375Q50.890625 106.734375 50.625 107.078125Q50.375 107.421875 50.375 108.328125Q50.375 109.15625 50.625 109.5Q50.890625 109.828125 51.28125 109.828125Q51.6875 109.828125 51.9375 109.484375Q52.203125 109.140625 52.203125 108.25Q52.203125 107.40625 51.9375 107.078125Q51.671875 106.734375 51.28125 106.734375ZM51.28125 115.0625L55.984375 106.015625L56.84375 106.015625L52.15625 115.0625L51.28125 115.0625ZM55.0 112.734375Q55.0 111.8125 55.453125 111.171875Q55.921875 110.53125 56.8125 110.53125Q57.625 110.53125 58.15625 111.109375Q58.6875 111.671875 58.6875 112.796875Q58.6875 113.890625 58.140625 114.484375Q57.609375 115.0625 56.8125 115.0625Q56.046875 115.0625 55.515625 114.484375Q55.0 113.90625 55.0 112.734375ZM56.84375 111.25Q56.4375 111.25 56.171875 111.59375Q55.921875 111.9375 55.921875 112.84375Q55.921875 113.65625 56.1875 114.0Q56.453125 114.34375 56.84375 114.34375Q57.234375 114.34375 57.5 114.0Q57.765625 113.65625 57.765625 112.75Q57.765625 111.921875 57.5 111.59375Q57.234375 111.25 56.84375 111.25Z" fill-rule="nonzero"/><path stroke="#757575" stroke-width="1.0" stroke-linecap="butt" d="M24.75 102.25L239.25 102.25L326.07455 90.53817" fill-rule="nonzero"/><path fill="#9e9e9e" d="M328.07455 90.53817C328.07455 89.4336 327.1791 88.53817 326.07455 88.53817C324.96997 88.53817 324.07455 89.4336 324.07455 90.53817C324.07455 91.64274 324.96997 92.53817 326.07455 92.53817C327.1791 92.53817 328.07455 91.64274 328.07455 90.53817" fill-rule="nonzero"/><path fill="#1a1a1a" d="M25.703125 223.97108L25.703125 215.37733L31.90625 215.37733L31.90625 216.39296L26.84375 216.39296L26.84375 219.01796L31.59375 219.01796L31.59375 220.03358L26.84375 220.03358L26.84375 222.95546L32.109375 222.95546L32.109375 223.97108L25.703125 223.97108ZM37.609375 223.20546Q37.015625 223.70546 36.46875 223.90858Q35.9375 224.11171 35.3125 224.11171Q34.28125 224.11171 33.734375 223.61171Q33.1875 223.11171 33.1875 222.33046Q33.1875 221.87733 33.390625 221.50233Q33.59375 221.11171 33.9375 220.89296Q34.28125 220.65858 34.703125 220.54921Q35.0 220.45546 35.640625 220.37733Q36.90625 220.23671 37.515625 220.01796Q37.515625 219.79921 37.515625 219.75233Q37.515625 219.09608 37.21875 218.83046Q36.8125 218.48671 36.015625 218.48671Q35.28125 218.48671 34.921875 218.75233Q34.5625 219.00233 34.390625 219.65858L33.359375 219.51796Q33.5 218.86171 33.828125 218.45546Q34.15625 218.04921 34.765625 217.83046Q35.375 217.61171 36.171875 217.61171Q36.96875 217.61171 37.46875 217.79921Q37.96875 217.98671 38.203125 218.26796Q38.4375 218.54921 38.53125 218.98671Q38.578125 219.25233 38.578125 219.95546L38.578125 221.36171Q38.578125 222.83046 38.640625 223.22108Q38.71875 223.61171 38.921875 223.97108L37.8125 223.97108Q37.65625 223.64296 37.609375 223.20546ZM37.515625 220.84608Q36.9375 221.08046 35.796875 221.25233Q35.140625 221.34608 34.875 221.47108Q34.609375 221.58046 34.453125 221.79921Q34.3125 222.01796 34.3125 222.29921Q34.3125 222.72108 34.625 223.00233Q34.953125 223.28358 35.5625 223.28358Q36.171875 223.28358 36.640625 223.01796Q37.125 222.75233 37.34375 222.28358Q37.515625 221.92421 37.515625 221.23671L37.515625 220.84608ZM40.53125 223.97108L40.53125 217.75233L41.484375 217.75233L41.484375 218.68983Q41.84375 218.03358 42.140625 217.83046Q42.453125 217.61171 42.828125 217.61171Q43.359375 217.61171 43.90625 217.93983L43.546875 218.92421Q43.15625 218.68983 42.78125 218.68983Q42.421875 218.68983 42.140625 218.90858Q41.875 219.11171 41.765625 219.48671Q41.578125 220.04921 41.578125 220.70546L41.578125 223.97108L40.53125 223.97108ZM44.515625 223.97108L44.515625 215.37733L45.578125 215.37733L45.578125 223.97108L44.515625 223.97108ZM47.5 226.36171L47.375 225.37733Q47.71875 225.47108 47.984375 225.47108Q48.328125 225.47108 48.53125 225.34608Q48.75 225.23671 48.890625 225.03358Q48.984375 224.86171 49.21875 224.23671Q49.234375 224.15858 49.3125 223.98671L46.9375 217.75233L48.078125 217.75233L49.375 221.34608Q49.625 222.03358 49.828125 222.79921Q50.015625 222.06483 50.265625 221.37733L51.59375 217.75233L52.640625 217.75233L50.28125 224.08046Q49.890625 225.09608 49.6875 225.48671Q49.40625 226.01796 49.03125 226.25233Q48.671875 226.50233 48.171875 226.50233Q47.875 226.50233 47.5 226.36171ZM55.125 222.11171L56.15625 221.95546Q56.25 222.58046 56.640625 222.90858Q57.046875 223.23671 57.78125 223.23671Q58.5 223.23671 58.84375 222.95546Q59.203125 222.65858 59.203125 222.25233Q59.203125 221.89296 58.890625 221.68983Q58.671875 221.54921 57.8125 221.33046Q56.65625 221.03358 56.203125 220.83046Q55.765625 220.61171 55.53125 220.23671Q55.296875 219.86171 55.296875 219.39296Q55.296875 218.98671 55.484375 218.62733Q55.671875 218.26796 56.0 218.03358Q56.25 217.86171 56.671875 217.73671Q57.09375 217.61171 57.59375 217.61171Q58.3125 217.61171 58.859375 217.83046Q59.421875 218.03358 59.6875 218.39296Q59.953125 218.75233 60.046875 219.34608L59.015625 219.48671Q58.953125 219.01796 58.609375 218.75233Q58.28125 218.47108 57.65625 218.47108Q56.9375 218.47108 56.625 218.72108Q56.3125 218.95546 56.3125 219.28358Q56.3125 219.48671 56.4375 219.64296Q56.578125 219.81483 56.84375 219.92421Q57.0 219.98671 57.78125 220.18983Q58.90625 220.50233 59.34375 220.68983Q59.78125 220.87733 60.03125 221.23671Q60.28125 221.59608 60.28125 222.14296Q60.28125 222.67421 59.96875 223.14296Q59.671875 223.59608 59.09375 223.86171Q58.515625 224.11171 57.78125 224.11171Q56.5625 224.11171 55.921875 223.61171Q55.296875 223.09608 55.125 222.11171ZM66.625 223.97108L66.625 223.04921Q65.890625 224.11171 64.640625 224.11171Q64.09375 224.11171 63.609375 223.90858Q63.140625 223.68983 62.90625 223.37733Q62.671875 223.04921 62.578125 222.58046Q62.515625 222.28358 62.515625 221.59608L62.515625 217.75233L63.578125 217.75233L63.578125 221.20546Q63.578125 222.01796 63.640625 222.31483Q63.734375 222.72108 64.046875 222.97108Q64.375 223.20546 64.859375 223.20546Q65.328125 223.20546 65.734375 222.97108Q66.15625 222.72108 66.328125 222.29921Q66.515625 221.87733 66.515625 221.08046L66.515625 217.75233L67.5625 217.75233L67.5625 223.97108L66.625 223.97108ZM69.546875 226.36171L69.546875 217.75233L70.5 217.75233L70.5 218.54921Q70.84375 218.08046 71.265625 217.84608Q71.703125 217.61171 72.3125 217.61171Q73.109375 217.61171 73.71875 218.01796Q74.328125 218.42421 74.625 219.17421Q74.9375 219.92421 74.9375 220.81483Q74.9375 221.76796 74.59375 222.53358Q74.265625 223.29921 73.609375 223.70546Q72.953125 224.11171 72.234375 224.11171Q71.703125 224.11171 71.28125 223.89296Q70.859375 223.65858 70.59375 223.33046L70.59375 226.36171L69.546875 226.36171ZM70.5 220.89296Q70.5 222.09608 70.984375 222.67421Q71.46875 223.23671 72.15625 223.23671Q72.859375 223.23671 73.359375 222.64296Q73.859375 222.04921 73.859375 220.79921Q73.859375 219.61171 73.375 219.03358Q72.890625 218.43983 72.203125 218.43983Q71.53125 218.43983 71.015625 219.06483Q70.5 219.68983 70.5 220.89296ZM76.546875 226.36171L76.546875 217.75233L77.5 217.75233L77.5 218.54921Q77.84375 218.08046 78.265625 217.84608Q78.703125 217.61171 79.3125 217.61171Q80.109375 217.61171 80.71875 218.01796Q81.328125 218.42421 81.625 219.17421Q81.9375 219.92421 81.9375 220.81483Q81.9375 221.76796 81.59375 222.53358Q81.265625 223.29921 80.609375 223.70546Q79.953125 224.11171 79.234375 224.11171Q78.703125 224.11171 78.28125 223.89296Q77.859375 223.65858 77.59375 223.33046L77.59375 226.36171L76.546875 226.36171ZM77.5 220.89296Q77.5 222.09608 77.984375 222.67421Q78.46875 223.23671 79.15625 223.23671Q79.859375 223.23671 80.359375 222.64296Q80.859375 222.04921 80.859375 220.79921Q80.859375 219.61171 80.375 219.03358Q79.890625 218.43983 79.203125 218.43983Q78.53125 218.43983 78.015625 219.06483Q77.5 219.68983 77.5 220.89296ZM83.15625 220.86171Q83.15625 219.12733 84.109375 218.29921Q84.90625 217.61171 86.0625 217.61171Q87.34375 217.61171 88.15625 218.45546Q88.984375 219.28358 88.984375 220.76796Q88.984375 221.97108 88.625 222.65858Q88.265625 223.34608 87.5625 223.73671Q86.875 224.11171 86.0625 224.11171Q84.765625 224.11171 83.953125 223.28358Q83.15625 222.43983 83.15625 220.86171ZM84.234375 220.86171Q84.234375 222.04921 84.75 222.64296Q85.28125 223.23671 86.0625 223.23671Q86.859375 223.23671 87.375 222.64296Q87.890625 222.04921 87.890625 220.83046Q87.890625 219.67421 87.359375 219.08046Q86.84375 218.48671 86.0625 218.48671Q85.28125 218.48671 84.75 219.08046Q84.234375 219.65858 84.234375 220.86171ZM90.53125 223.97108L90.53125 217.75233L91.484375 217.75233L91.484375 218.68983Q91.84375 218.03358 92.140625 217.83046Q92.453125 217.61171 92.828125 217.61171Q93.359375 217.61171 93.90625 217.93983L93.546875 218.92421Q93.15625 218.68983 92.78125 218.68983Q92.421875 218.68983 92.140625 218.90858Q91.875 219.11171 91.765625 219.48671Q91.578125 220.04921 91.578125 220.70546L91.578125 223.97108L90.53125 223.97108ZM96.84375 223.03358L97.0 223.95546Q96.546875 224.04921 96.203125 224.04921Q95.625 224.04921 95.3125 223.87733Q95.0 223.68983 94.859375 223.39296Q94.734375 223.09608 94.734375 222.14296L94.734375 218.56483L93.96875 218.56483L93.96875 217.75233L94.734375 217.75233L94.734375 216.20546L95.78125 215.58046L95.78125 217.75233L96.84375 217.75233L96.84375 218.56483L95.78125 218.56483L95.78125 222.20546Q95.78125 222.65858 95.828125 222.78358Q95.890625 222.90858 96.015625 222.98671Q96.140625 223.06483 96.375 223.06483Q96.5625 223.06483 96.84375 223.03358ZM101.796875 221.97108L102.890625 222.09608Q102.640625 223.04921 101.9375 223.58046Q101.234375 224.11171 100.15625 224.11171Q98.796875 224.11171 97.984375 223.26796Q97.1875 222.42421 97.1875 220.90858Q97.1875 219.34608 98.0 218.48671Q98.8125 217.61171 100.09375 217.61171Q101.34375 217.61171 102.125 218.45546Q102.921875 219.29921 102.921875 220.84608Q102.921875 220.93983 102.921875 221.12733L98.28125 221.12733Q98.34375 222.15858 98.859375 222.70546Q99.375 223.23671 100.15625 223.23671Q100.734375 223.23671 101.140625 222.93983Q101.5625 222.62733 101.796875 221.97108ZM98.34375 220.26796L101.8125 220.26796Q101.75 219.47108 101.421875 219.08046Q100.90625 218.47108 100.109375 218.47108Q99.375 218.47108 98.875 218.95546Q98.390625 219.43983 98.34375 220.26796ZM104.53125 223.97108L104.53125 217.75233L105.484375 217.75233L105.484375 218.68983Q105.84375 218.03358 106.140625 217.83046Q106.453125 217.61171 106.828125 217.61171Q107.359375 217.61171 107.90625 217.93983L107.546875 218.92421Q107.15625 218.68983 106.78125 218.68983Q106.421875 218.68983 106.140625 218.90858Q105.875 219.11171 105.765625 219.48671Q105.578125 220.04921 105.578125 220.70546L105.578125 223.97108L104.53125 223.97108ZM108.125 222.11171L109.15625 221.95546Q109.25 222.58046 109.640625 222.90858Q110.046875 223.23671 110.78125 223.23671Q111.5 223.23671 111.84375 222.95546Q112.203125 222.65858 112.203125 222.25233Q112.203125 221.89296 111.890625 221.68983Q111.671875 221.54921 110.8125 221.33046Q109.65625 221.03358 109.203125 220.83046Q108.765625 220.61171 108.53125 220.23671Q108.296875 219.86171 108.296875 219.39296Q108.296875 218.98671 108.484375 218.62733Q108.671875 218.26796 109.0 218.03358Q109.25 217.86171 109.671875 217.73671Q110.09375 217.61171 110.59375 217.61171Q111.3125 217.61171 111.859375 217.83046Q112.421875 218.03358 112.6875 218.39296Q112.953125 218.75233 113.046875 219.34608L112.015625 219.48671Q111.953125 219.01796 111.609375 218.75233Q111.28125 218.47108 110.65625 218.47108Q109.9375 218.47108 109.625 218.72108Q109.3125 218.95546 109.3125 219.28358Q109.3125 219.48671 109.4375 219.64296Q109.578125 219.81483 109.84375 219.92421Q110.0 219.98671 110.78125 220.18983Q111.90625 220.50233 112.34375 220.68983Q112.78125 220.87733 113.03125 221.23671Q113.28125 221.59608 113.28125 222.14296Q113.28125 222.67421 112.96875 223.14296Q112.671875 223.59608 112.09375 223.86171Q111.515625 224.11171 110.78125 224.11171Q109.5625 224.11171 108.921875 223.61171Q108.296875 223.09608 108.125 222.11171ZM123.453125 222.95546Q122.9375 223.53358 122.3125 223.83046Q121.703125 224.11171 120.984375 224.11171Q119.671875 224.11171 118.890625 223.22108Q118.265625 222.50233 118.265625 221.59608Q118.265625 220.79921 118.78125 220.15858Q119.296875 219.51796 120.3125 219.03358Q119.734375 218.36171 119.53125 217.95546Q119.34375 217.53358 119.34375 217.14296Q119.34375 216.37733 119.953125 215.81483Q120.5625 215.23671 121.484375 215.23671Q122.359375 215.23671 122.90625 215.78358Q123.46875 216.31483 123.46875 217.06483Q123.46875 218.29921 121.859375 219.15858L123.390625 221.12733Q123.65625 220.61171 123.796875 219.92421L124.90625 220.15858Q124.625 221.28358 124.140625 222.01796Q124.734375 222.79921 125.484375 223.33046L124.765625 224.17421Q124.125 223.75233 123.453125 222.95546ZM121.3125 218.48671Q122.0 218.08046 122.1875 217.78358Q122.390625 217.47108 122.390625 217.09608Q122.390625 216.65858 122.109375 216.37733Q121.84375 216.09608 121.421875 216.09608Q121.0 216.09608 120.703125 216.37733Q120.421875 216.65858 120.421875 217.04921Q120.421875 217.25233 120.53125 217.47108Q120.640625 217.68983 120.84375 217.93983L121.3125 218.48671ZM122.796875 222.12733L120.859375 219.72108Q120.0 220.23671 119.703125 220.67421Q119.40625 221.11171 119.40625 221.53358Q119.40625 222.06483 119.8125 222.62733Q120.234375 223.18983 121.0 223.18983Q121.46875 223.18983 121.96875 222.89296Q122.484375 222.59608 122.796875 222.12733ZM133.60938 223.20546Q133.01562 223.70546 132.46875 223.90858Q131.9375 224.11171 131.3125 224.11171Q130.28125 224.11171 129.73438 223.61171Q129.1875 223.11171 129.1875 222.33046Q129.1875 221.87733 129.39062 221.50233Q129.59375 221.11171 129.9375 220.89296Q130.28125 220.65858 130.70312 220.54921Q131.0 220.45546 131.64062 220.37733Q132.90625 220.23671 133.51562 220.01796Q133.51562 219.79921 133.51562 219.75233Q133.51562 219.09608 133.21875 218.83046Q132.8125 218.48671 132.01562 218.48671Q131.28125 218.48671 130.92188 218.75233Q130.5625 219.00233 130.39062 219.65858L129.35938 219.51796Q129.5 218.86171 129.82812 218.45546Q130.15625 218.04921 130.76562 217.83046Q131.375 217.61171 132.17188 217.61171Q132.96875 217.61171 133.46875 217.79921Q133.96875 217.98671 134.20312 218.26796Q134.4375 218.54921 134.53125 218.98671Q134.57812 219.25233 134.57812 219.95546L134.57812 221.36171Q134.57812 222.83046 134.64062 223.22108Q134.71875 223.61171 134.92188 223.97108L133.8125 223.97108Q133.65625 223.64296 133.60938 223.20546ZM133.51562 220.84608Q132.9375 221.08046 131.79688 221.25233Q131.14062 221.34608 130.875 221.47108Q130.60938 221.58046 130.45312 221.79921Q130.3125 222.01796 130.3125 222.29921Q130.3125 222.72108 130.625 223.00233Q130.95312 223.28358 131.5625 223.28358Q132.17188 223.28358 132.64062 223.01796Q133.125 222.75233 133.34375 222.28358Q133.51562 221.92421 133.51562 221.23671L133.51562 220.84608ZM140.57812 223.97108L140.57812 223.18983Q139.98438 224.11171 138.84375 224.11171Q138.09375 224.11171 137.46875 223.70546Q136.84375 223.28358 136.5 222.54921Q136.15625 221.81483 136.15625 220.86171Q136.15625 219.93983 136.46875 219.17421Q136.78125 218.40858 137.40625 218.01796Q138.03125 217.61171 138.79688 217.61171Q139.35938 217.61171 139.79688 217.84608Q140.23438 218.08046 140.51562 218.45546L140.51562 215.37733L141.5625 215.37733L141.5625 223.97108L140.57812 223.97108ZM137.25 220.86171Q137.25 222.06483 137.75 222.65858Q138.25 223.23671 138.9375 223.23671Q139.625 223.23671 140.10938 222.67421Q140.59375 222.11171 140.59375 220.95546Q140.59375 219.67421 140.09375 219.08046Q139.60938 218.48671 138.89062 218.48671Q138.1875 218.48671 137.71875 219.06483Q137.25 219.62733 137.25 220.86171ZM145.26562 223.97108L142.90625 217.75233L144.01562 217.75233L145.35938 221.47108Q145.5625 222.08046 145.75 222.72108Q145.89062 222.23671 146.14062 221.54921L147.53125 217.75233L148.60938 217.75233L146.25 223.97108L145.26562 223.97108ZM148.54688 216.59608L148.54688 215.37733L149.60938 215.37733L149.60938 216.59608L148.54688 216.59608ZM148.54688 223.97108L148.54688 217.75233L149.60938 217.75233L149.60938 223.97108L148.54688 223.97108ZM151.125 222.11171L152.15625 221.95546Q152.25 222.58046 152.64062 222.90858Q153.04688 223.23671 153.78125 223.23671Q154.5 223.23671 154.84375 222.95546Q155.20312 222.65858 155.20312 222.25233Q155.20312 221.89296 154.89062 221.68983Q154.67188 221.54921 153.8125 221.33046Q152.65625 221.03358 152.20312 220.83046Q151.76562 220.61171 151.53125 220.23671Q151.29688 219.86171 151.29688 219.39296Q151.29688 218.98671 151.48438 218.62733Q151.67188 218.26796 152.0 218.03358Q152.25 217.86171 152.67188 217.73671Q153.09375 217.61171 153.59375 217.61171Q154.3125 217.61171 154.85938 217.83046Q155.42188 218.03358 155.6875 218.39296Q155.95312 218.75233 156.04688 219.34608L155.01562 219.48671Q154.95312 219.01796 154.60938 218.75233Q154.28125 218.47108 153.65625 218.47108Q152.9375 218.47108 152.625 218.72108Q152.3125 218.95546 152.3125 219.28358Q152.3125 219.48671 152.4375 219.64296Q152.57812 219.81483 152.84375 219.92421Q153.0 219.98671 153.78125 220.18983Q154.90625 220.50233 155.34375 220.68983Q155.78125 220.87733 156.03125 221.23671Q156.28125 221.59608 156.28125 222.14296Q156.28125 222.67421 155.96875 223.14296Q155.67188 223.59608 155.09375 223.86171Q154.51562 224.11171 153.78125 224.11171Q152.5625 224.11171 151.92188 223.61171Q151.29688 223.09608 151.125 222.11171ZM158.15625 220.86171Q158.15625 219.12733 159.10938 218.29921Q159.90625 217.61171 161.0625 217.61171Q162.34375 217.61171 163.15625 218.45546Q163.98438 219.28358 163.98438 220.76796Q163.98438 221.97108 163.625 222.65858Q163.26562 223.34608 162.5625 223.73671Q161.875 224.11171 161.0625 224.11171Q159.76562 224.11171 158.95312 223.28358Q158.15625 222.43983 158.15625 220.86171ZM159.23438 220.86171Q159.23438 222.04921 159.75 222.64296Q160.28125 223.23671 161.0625 223.23671Q161.85938 223.23671 162.375 222.64296Q162.89062 222.04921 162.89062 220.83046Q162.89062 219.67421 162.35938 219.08046Q161.84375 218.48671 161.0625 218.48671Q160.28125 218.48671 159.75 219.08046Q159.23438 219.65858 159.23438 220.86171ZM165.53125 223.97108L165.53125 217.75233L166.48438 217.75233L166.48438 218.68983Q166.84375 218.03358 167.14062 217.83046Q167.45312 217.61171 167.82812 217.61171Q168.35938 217.61171 168.90625 217.93983L168.54688 218.92421Q168.15625 218.68983 167.78125 218.68983Q167.42188 218.68983 167.14062 218.90858Q166.875 219.11171 166.76562 219.48671Q166.57812 220.04921 166.57812 220.70546L166.57812 223.97108L165.53125 223.97108ZM169.125 222.11171L170.15625 221.95546Q170.25 222.58046 170.64062 222.90858Q171.04688 223.23671 171.78125 223.23671Q172.5 223.23671 172.84375 222.95546Q173.20312 222.65858 173.20312 222.25233Q173.20312 221.89296 172.89062 221.68983Q172.67188 221.54921 171.8125 221.33046Q170.65625 221.03358 170.20312 220.83046Q169.76562 220.61171 169.53125 220.23671Q169.29688 219.86171 169.29688 219.39296Q169.29688 218.98671 169.48438 218.62733Q169.67188 218.26796 170.0 218.03358Q170.25 217.86171 170.67188 217.73671Q171.09375 217.61171 171.59375 217.61171Q172.3125 217.61171 172.85938 217.83046Q173.42188 218.03358 173.6875 218.39296Q173.95312 218.75233 174.04688 219.34608L173.01562 219.48671Q172.95312 219.01796 172.60938 218.75233Q172.28125 218.47108 171.65625 218.47108Q170.9375 218.47108 170.625 218.72108Q170.3125 218.95546 170.3125 219.28358Q170.3125 219.48671 170.4375 219.64296Q170.57812 219.81483 170.84375 219.92421Q171.0 219.98671 171.78125 220.18983Q172.90625 220.50233 173.34375 220.68983Q173.78125 220.87733 174.03125 221.23671Q174.28125 221.59608 174.28125 222.14296Q174.28125 222.67421 173.96875 223.14296Q173.67188 223.59608 173.09375 223.86171Q172.51562 224.11171 171.78125 224.11171Q170.5625 224.11171 169.92188 223.61171Q169.29688 223.09608 169.125 222.11171Z" fill-rule="nonzero"/><path fill="#9e9e9e" d="M29.21875 240.97108L28.171875 240.97108L28.171875 234.25233Q27.78125 234.61171 27.15625 234.98671Q26.546875 235.34608 26.0625 235.51796L26.0625 234.50233Q26.9375 234.08046 27.59375 233.50233Q28.265625 232.90858 28.546875 232.34608L29.21875 232.34608L29.21875 240.97108ZM37.796875 239.95546L37.796875 240.97108L32.109375 240.97108Q32.109375 240.59608 32.234375 240.23671Q32.453125 239.65858 32.921875 239.09608Q33.40625 238.53358 34.3125 237.79921Q35.71875 236.64296 36.203125 235.97108Q36.703125 235.29921 36.703125 234.70546Q36.703125 234.08046 36.25 233.65858Q35.796875 233.22108 35.078125 233.22108Q34.3125 233.22108 33.859375 233.67421Q33.40625 234.12733 33.390625 234.93983L32.3125 234.83046Q32.421875 233.61171 33.140625 232.98671Q33.875 232.34608 35.109375 232.34608Q36.34375 232.34608 37.0625 233.03358Q37.78125 233.72108 37.78125 234.73671Q37.78125 235.25233 37.5625 235.75233Q37.359375 236.23671 36.859375 236.79921Q36.375 237.34608 35.25 238.29921Q34.296875 239.09608 34.015625 239.39296Q33.75 239.67421 33.578125 239.95546L37.796875 239.95546ZM39.84375 240.97108L39.84375 239.76796L41.046875 239.76796L41.046875 240.97108L39.84375 240.97108ZM42.3125 233.50233L42.3125 232.48671L47.875 232.48671L47.875 233.31483Q47.0625 234.18983 46.25 235.64296Q45.453125 237.08046 45.015625 238.61171Q44.6875 239.68983 44.609375 240.97108L43.515625 240.97108Q43.53125 239.95546 43.90625 238.51796Q44.296875 237.08046 45.0 235.75233Q45.71875 234.42421 46.53125 233.50233L42.3125 233.50233ZM49.453125 234.43983Q49.453125 233.51796 49.90625 232.87733Q50.375 232.23671 51.25 232.23671Q52.0625 232.23671 52.59375 232.81483Q53.125 233.39296 53.125 234.50233Q53.125 235.59608 52.578125 236.18983Q52.046875 236.76796 51.265625 236.76796Q50.484375 236.76796 49.96875 236.18983Q49.453125 235.61171 49.453125 234.43983ZM51.28125 232.95546Q50.890625 232.95546 50.625 233.29921Q50.375 233.64296 50.375 234.54921Q50.375 235.37733 50.625 235.72108Q50.890625 236.04921 51.28125 236.04921Q51.6875 236.04921 51.9375 235.70546Q52.203125 235.36171 52.203125 234.47108Q52.203125 233.62733 51.9375 233.29921Q51.671875 232.95546 51.28125 232.95546ZM51.28125 241.28358L55.984375 232.23671L56.84375 232.23671L52.15625 241.28358L51.28125 241.28358ZM55.0 238.95546Q55.0 238.03358 55.453125 237.39296Q55.921875 236.75233 56.8125 236.75233Q57.625 236.75233 58.15625 237.33046Q58.6875 237.89296 58.6875 239.01796Q58.6875 240.11171 58.140625 240.70546Q57.609375 241.28358 56.8125 241.28358Q56.046875 241.28358 55.515625 240.70546Q55.0 240.12733 55.0 238.95546ZM56.84375 237.47108Q56.4375 237.47108 56.171875 237.81483Q55.921875 238.15858 55.921875 239.06483Q55.921875 239.87733 56.1875 240.22108Q56.453125 240.56483 56.84375 240.56483Q57.234375 240.56483 57.5 240.22108Q57.765625 239.87733 57.765625 238.97108Q57.765625 238.14296 57.5 237.81483Q57.234375 237.47108 56.84375 237.47108Z" fill-rule="nonzero"/><path stroke="#757575" stroke-width="1.0" stroke-linecap="butt" d="M24.75 228.47108L239.25 228.47108L257.2448 228.47108" fill-rule="nonzero"/><path fill="#9e9e9e" d="M259.2448 228.47108C259.2448 227.36652 258.34937 226.47108 257.2448 226.47108C256.14023 226.47108 255.24481 227.36652 255.24481 228.47108C255.24481 229.57565 256.14023 230.47108 257.2448 230.47108C258.34937 230.47108 259.2448 229.57565 259.2448 228.47108" fill-rule="nonzero"/><path fill="#1a1a1a" d="M25.671875 408.1083L25.671875 399.51456L28.921875 399.51456Q29.765625 399.51456 30.21875 399.59268Q30.859375 399.70206 31.28125 399.99893Q31.71875 400.2958 31.96875 400.82706Q32.234375 401.3583 32.234375 401.99893Q32.234375 403.09268 31.53125 403.8583Q30.84375 404.6083 29.015625 404.6083L26.8125 404.6083L26.8125 408.1083L25.671875 408.1083ZM26.8125 403.6083L29.03125 403.6083Q30.140625 403.6083 30.59375 403.20206Q31.0625 402.78018 31.0625 402.03018Q31.0625 401.49893 30.78125 401.12393Q30.515625 400.7333 30.078125 400.6083Q29.78125 400.53018 29.015625 400.53018L26.8125 400.53018L26.8125 403.6083ZM33.53125 408.1083L33.53125 401.88956L34.484375 401.88956L34.484375 402.82706Q34.84375 402.1708 35.140625 401.96768Q35.453125 401.74893 35.828125 401.74893Q36.359375 401.74893 36.90625 402.07706L36.546875 403.06143Q36.15625 402.82706 35.78125 402.82706Q35.421875 402.82706 35.140625 403.0458Q34.875 403.24893 34.765625 403.62393Q34.578125 404.18643 34.578125 404.84268L34.578125 408.1083L33.53125 408.1083ZM37.15625 404.99893Q37.15625 403.26456 38.109375 402.43643Q38.90625 401.74893 40.0625 401.74893Q41.34375 401.74893 42.15625 402.59268Q42.984375 403.4208 42.984375 404.90518Q42.984375 406.1083 42.625 406.7958Q42.265625 407.4833 41.5625 407.87393Q40.875 408.24893 40.0625 408.24893Q38.765625 408.24893 37.953125 407.4208Q37.15625 406.57706 37.15625 404.99893ZM38.234375 404.99893Q38.234375 406.18643 38.75 406.78018Q39.28125 407.37393 40.0625 407.37393Q40.859375 407.37393 41.375 406.78018Q41.890625 406.18643 41.890625 404.96768Q41.890625 403.81143 41.359375 403.21768Q40.84375 402.62393 40.0625 402.62393Q39.28125 402.62393 38.75 403.21768Q38.234375 403.7958 38.234375 404.99893ZM46.84375 407.1708L47.0 408.09268Q46.546875 408.18643 46.203125 408.18643Q45.625 408.18643 45.3125 408.01456Q45.0 407.82706 44.859375 407.53018Q44.734375 407.2333 44.734375 406.28018L44.734375 402.70206L43.96875 402.70206L43.96875 401.88956L44.734375 401.88956L44.734375 400.34268L45.78125 399.71768L45.78125 401.88956L46.84375 401.88956L46.84375 402.70206L45.78125 402.70206L45.78125 406.34268Q45.78125 406.7958 45.828125 406.9208Q45.890625 407.0458 46.015625 407.12393Q46.140625 407.20206 46.375 407.20206Q46.5625 407.20206 46.84375 407.1708ZM47.15625 404.99893Q47.15625 403.26456 48.109375 402.43643Q48.90625 401.74893 50.0625 401.74893Q51.34375 401.74893 52.15625 402.59268Q52.984375 403.4208 52.984375 404.90518Q52.984375 406.1083 52.625 406.7958Q52.265625 407.4833 51.5625 407.87393Q50.875 408.24893 50.0625 408.24893Q48.765625 408.24893 47.953125 407.4208Q47.15625 406.57706 47.15625 404.99893ZM48.234375 404.99893Q48.234375 406.18643 48.75 406.78018Q49.28125 407.37393 50.0625 407.37393Q50.859375 407.37393 51.375 406.78018Q51.890625 406.18643 51.890625 404.96768Q51.890625 403.81143 51.359375 403.21768Q50.84375 402.62393 50.0625 402.62393Q49.28125 402.62393 48.75 403.21768Q48.234375 403.7958 48.234375 404.99893ZM58.609375 405.82706L59.640625 405.96768Q59.46875 407.03018 58.765625 407.63956Q58.0625 408.24893 57.046875 408.24893Q55.765625 408.24893 54.984375 407.4208Q54.21875 406.57706 54.21875 405.01456Q54.21875 404.01456 54.546875 403.26456Q54.890625 402.49893 55.5625 402.12393Q56.25 401.74893 57.0625 401.74893Q58.0625 401.74893 58.703125 402.26456Q59.359375 402.76456 59.546875 403.71768L58.515625 403.87393Q58.375 403.24893 58.0 402.93643Q57.625 402.6083 57.09375 402.6083Q56.296875 402.6083 55.796875 403.18643Q55.296875 403.74893 55.296875 404.9833Q55.296875 406.24893 55.78125 406.81143Q56.265625 407.37393 57.03125 407.37393Q57.65625 407.37393 58.0625 406.99893Q58.484375 406.62393 58.609375 405.82706ZM60.15625 404.99893Q60.15625 403.26456 61.109375 402.43643Q61.90625 401.74893 63.0625 401.74893Q64.34375 401.74893 65.15625 402.59268Q65.984375 403.4208 65.984375 404.90518Q65.984375 406.1083 65.625 406.7958Q65.265625 407.4833 64.5625 407.87393Q63.875 408.24893 63.0625 408.24893Q61.765625 408.24893 60.953125 407.4208Q60.15625 406.57706 60.15625 404.99893ZM61.234375 404.99893Q61.234375 406.18643 61.75 406.78018Q62.28125 407.37393 63.0625 407.37393Q63.859375 407.37393 64.375 406.78018Q64.890625 406.18643 64.890625 404.96768Q64.890625 403.81143 64.359375 403.21768Q63.84375 402.62393 63.0625 402.62393Q62.28125 402.62393 61.75 403.21768Q61.234375 403.7958 61.234375 404.99893ZM67.515625 408.1083L67.515625 399.51456L68.578125 399.51456L68.578125 408.1083L67.515625 408.1083ZM77.578125 408.1083L77.578125 407.32706Q76.984375 408.24893 75.84375 408.24893Q75.09375 408.24893 74.46875 407.84268Q73.84375 407.4208 73.5 406.68643Q73.15625 405.95206 73.15625 404.99893Q73.15625 404.07706 73.46875 403.31143Q73.78125 402.5458 74.40625 402.15518Q75.03125 401.74893 75.796875 401.74893Q76.359375 401.74893 76.796875 401.9833Q77.234375 402.21768 77.515625 402.59268L77.515625 399.51456L78.5625 399.51456L78.5625 408.1083L77.578125 408.1083ZM74.25 404.99893Q74.25 406.20206 74.75 406.7958Q75.25 407.37393 75.9375 407.37393Q76.625 407.37393 77.109375 406.81143Q77.59375 406.24893 77.59375 405.09268Q77.59375 403.81143 77.09375 403.21768Q76.609375 402.62393 75.890625 402.62393Q75.1875 402.62393 74.71875 403.20206Q74.25 403.76456 74.25 404.99893ZM84.796875 406.1083L85.890625 406.2333Q85.640625 407.18643 84.9375 407.71768Q84.234375 408.24893 83.15625 408.24893Q81.796875 408.24893 80.984375 407.40518Q80.1875 406.56143 80.1875 405.0458Q80.1875 403.4833 81.0 402.62393Q81.8125 401.74893 83.09375 401.74893Q84.34375 401.74893 85.125 402.59268Q85.921875 403.43643 85.921875 404.9833Q85.921875 405.07706 85.921875 405.26456L81.28125 405.26456Q81.34375 406.2958 81.859375 406.84268Q82.375 407.37393 83.15625 407.37393Q83.734375 407.37393 84.140625 407.07706Q84.5625 406.76456 84.796875 406.1083ZM81.34375 404.40518L84.8125 404.40518Q84.75 403.6083 84.421875 403.21768Q83.90625 402.6083 83.109375 402.6083Q82.375 402.6083 81.875 403.09268Q81.390625 403.57706 81.34375 404.40518ZM89.265625 408.1083L86.90625 401.88956L88.015625 401.88956L89.359375 405.6083Q89.5625 406.21768 89.75 406.8583Q89.890625 406.37393 90.140625 405.68643L91.53125 401.88956L92.609375 401.88956L90.25 408.1083L89.265625 408.1083ZM96.796875 406.1083L97.890625 406.2333Q97.640625 407.18643 96.9375 407.71768Q96.234375 408.24893 95.15625 408.24893Q93.796875 408.24893 92.984375 407.40518Q92.1875 406.56143 92.1875 405.0458Q92.1875 403.4833 93.0 402.62393Q93.8125 401.74893 95.09375 401.74893Q96.34375 401.74893 97.125 402.59268Q97.921875 403.43643 97.921875 404.9833Q97.921875 405.07706 97.921875 405.26456L93.28125 405.26456Q93.34375 406.2958 93.859375 406.84268Q94.375 407.37393 95.15625 407.37393Q95.734375 407.37393 96.140625 407.07706Q96.5625 406.76456 96.796875 406.1083ZM93.34375 404.40518L96.8125 404.40518Q96.75 403.6083 96.421875 403.21768Q95.90625 402.6083 95.109375 402.6083Q94.375 402.6083 93.875 403.09268Q93.390625 403.57706 93.34375 404.40518ZM99.515625 408.1083L99.515625 399.51456L100.578125 399.51456L100.578125 408.1083L99.515625 408.1083ZM102.15625 404.99893Q102.15625 403.26456 103.109375 402.43643Q103.90625 401.74893 105.0625 401.74893Q106.34375 401.74893 107.15625 402.59268Q107.984375 403.4208 107.984375 404.90518Q107.984375 406.1083 107.625 406.7958Q107.265625 407.4833 106.5625 407.87393Q105.875 408.24893 105.0625 408.24893Q103.765625 408.24893 102.953125 407.4208Q102.15625 406.57706 102.15625 404.99893ZM103.234375 404.99893Q103.234375 406.18643 103.75 406.78018Q104.28125 407.37393 105.0625 407.37393Q105.859375 407.37393 106.375 406.78018Q106.890625 406.18643 106.890625 404.96768Q106.890625 403.81143 106.359375 403.21768Q105.84375 402.62393 105.0625 402.62393Q104.28125 402.62393 103.75 403.21768Q103.234375 403.7958 103.234375 404.99893ZM109.546875 410.49893L109.546875 401.88956L110.5 401.88956L110.5 402.68643Q110.84375 402.21768 111.265625 401.9833Q111.703125 401.74893 112.3125 401.74893Q113.109375 401.74893 113.71875 402.15518Q114.328125 402.56143 114.625 403.31143Q114.9375 404.06143 114.9375 404.95206Q114.9375 405.90518 114.59375 406.6708Q114.265625 407.43643 113.609375 407.84268Q112.953125 408.24893 112.234375 408.24893Q111.703125 408.24893 111.28125 408.03018Q110.859375 407.7958 110.59375 407.46768L110.59375 410.49893L109.546875 410.49893ZM110.5 405.03018Q110.5 406.2333 110.984375 406.81143Q111.46875 407.37393 112.15625 407.37393Q112.859375 407.37393 113.359375 406.78018Q113.859375 406.18643 113.859375 404.93643Q113.859375 403.74893 113.375 403.1708Q112.890625 402.57706 112.203125 402.57706Q111.53125 402.57706 111.015625 403.20206Q110.5 403.82706 110.5 405.03018ZM116.546875 408.1083L116.546875 401.88956L117.484375 401.88956L117.484375 402.76456Q117.78125 402.2958 118.265625 402.03018Q118.75 401.74893 119.375 401.74893Q120.0625 401.74893 120.5 402.03018Q120.953125 402.31143 121.125 402.82706Q121.875 401.74893 123.046875 401.74893Q123.984375 401.74893 124.46875 402.26456Q124.96875 402.76456 124.96875 403.84268L124.96875 408.1083L123.921875 408.1083L123.921875 404.18643Q123.921875 403.56143 123.8125 403.28018Q123.71875 402.99893 123.453125 402.82706Q123.1875 402.65518 122.8125 402.65518Q122.15625 402.65518 121.71875 403.09268Q121.296875 403.53018 121.296875 404.49893L121.296875 408.1083L120.234375 408.1083L120.234375 404.06143Q120.234375 403.3583 119.96875 403.01456Q119.71875 402.65518 119.140625 402.65518Q118.6875 402.65518 118.3125 402.88956Q117.9375 403.12393 117.765625 403.57706Q117.59375 404.03018 117.59375 404.87393L117.59375 408.1083L116.546875 408.1083ZM131.79688 406.1083L132.89062 406.2333Q132.64062 407.18643 131.9375 407.71768Q131.23438 408.24893 130.15625 408.24893Q128.79688 408.24893 127.984375 407.40518Q127.1875 406.56143 127.1875 405.0458Q127.1875 403.4833 128.0 402.62393Q128.8125 401.74893 130.09375 401.74893Q131.34375 401.74893 132.125 402.59268Q132.92188 403.43643 132.92188 404.9833Q132.92188 405.07706 132.92188 405.26456L128.28125 405.26456Q128.34375 406.2958 128.85938 406.84268Q129.375 407.37393 130.15625 407.37393Q130.73438 407.37393 131.14062 407.07706Q131.5625 406.76456 131.79688 406.1083ZM128.34375 404.40518L131.8125 404.40518Q131.75 403.6083 131.42188 403.21768Q130.90625 402.6083 130.10938 402.6083Q129.375 402.6083 128.875 403.09268Q128.39062 403.57706 128.34375 404.40518ZM134.54688 408.1083L134.54688 401.88956L135.48438 401.88956L135.48438 402.76456Q136.17188 401.74893 137.46875 401.74893Q138.03125 401.74893 138.5 401.95206Q138.98438 402.15518 139.21875 402.4833Q139.45312 402.81143 139.54688 403.24893Q139.59375 403.5458 139.59375 404.28018L139.59375 408.1083L138.54688 408.1083L138.54688 404.32706Q138.54688 403.6708 138.42188 403.3583Q138.29688 403.0458 137.98438 402.8583Q137.67188 402.65518 137.25 402.65518Q136.57812 402.65518 136.07812 403.09268Q135.59375 403.51456 135.59375 404.70206L135.59375 408.1083L134.54688 408.1083ZM143.84375 407.1708L144.0 408.09268Q143.54688 408.18643 143.20312 408.18643Q142.625 408.18643 142.3125 408.01456Q142.0 407.82706 141.85938 407.53018Q141.73438 407.2333 141.73438 406.28018L141.73438 402.70206L140.96875 402.70206L140.96875 401.88956L141.73438 401.88956L141.73438 400.34268L142.78125 399.71768L142.78125 401.88956L143.84375 401.88956L143.84375 402.70206L142.78125 402.70206L142.78125 406.34268Q142.78125 406.7958 142.82812 406.9208Q142.89062 407.0458 143.01562 407.12393Q143.14062 407.20206 143.375 407.20206Q143.5625 407.20206 143.84375 407.1708Z" fill-rule="nonzero"/><path fill="#9e9e9e" d="M29.21875 425.1083L28.171875 425.1083L28.171875 418.38956Q27.78125 418.74893 27.15625 419.12393Q26.546875 419.4833 26.0625 419.65518L26.0625 418.63956Q26.9375 418.21768 27.59375 417.63956Q28.265625 417.0458 28.546875 416.4833L29.21875 416.4833L29.21875 425.1083ZM33.875 420.45206Q33.21875 420.20206 32.890625 419.76456Q32.578125 419.31143 32.578125 418.70206Q32.578125 417.76456 33.25 417.12393Q33.9375 416.4833 35.046875 416.4833Q36.171875 416.4833 36.859375 417.13956Q37.546875 417.7958 37.546875 418.7333Q37.546875 419.32706 37.234375 419.76456Q36.921875 420.20206 36.28125 420.45206Q37.078125 420.70206 37.484375 421.28018Q37.890625 421.8583 37.890625 422.65518Q37.890625 423.74893 37.109375 424.49893Q36.34375 425.24893 35.0625 425.24893Q33.796875 425.24893 33.015625 424.49893Q32.234375 423.74893 32.234375 422.62393Q32.234375 421.78018 32.65625 421.21768Q33.09375 420.65518 33.875 420.45206ZM33.65625 418.65518Q33.65625 419.26456 34.046875 419.65518Q34.453125 420.0458 35.078125 420.0458Q35.6875 420.0458 36.078125 419.6708Q36.46875 419.28018 36.46875 418.71768Q36.46875 418.13956 36.0625 417.74893Q35.65625 417.34268 35.0625 417.34268Q34.453125 417.34268 34.046875 417.7333Q33.65625 418.12393 33.65625 418.65518ZM33.328125 422.62393Q33.328125 423.07706 33.53125 423.49893Q33.75 423.9208 34.171875 424.15518Q34.59375 424.38956 35.078125 424.38956Q35.828125 424.38956 36.3125 423.90518Q36.8125 423.4208 36.8125 422.6708Q36.8125 421.90518 36.3125 421.40518Q35.8125 420.90518 35.046875 420.90518Q34.296875 420.90518 33.8125 421.40518Q33.328125 421.88956 33.328125 422.62393ZM39.84375 425.1083L39.84375 423.90518L41.046875 423.90518L41.046875 425.1083L39.84375 425.1083ZM47.71875 418.62393L46.671875 418.70206Q46.53125 418.07706 46.28125 417.7958Q45.84375 417.34268 45.21875 417.34268Q44.71875 417.34268 44.328125 417.62393Q43.84375 417.99893 43.546875 418.70206Q43.265625 419.38956 43.25 420.6708Q43.625 420.09268 44.171875 419.81143Q44.734375 419.53018 45.34375 419.53018Q46.390625 419.53018 47.125 420.31143Q47.875 421.09268 47.875 422.31143Q47.875 423.12393 47.515625 423.82706Q47.171875 424.51456 46.5625 424.88956Q45.953125 425.24893 45.1875 425.24893Q43.859375 425.24893 43.03125 424.28018Q42.203125 423.31143 42.203125 421.09268Q42.203125 418.59268 43.125 417.46768Q43.921875 416.4833 45.28125 416.4833Q46.296875 416.4833 46.9375 417.06143Q47.59375 417.62393 47.71875 418.62393ZM43.421875 422.32706Q43.421875 422.87393 43.640625 423.37393Q43.875 423.8583 44.28125 424.12393Q44.703125 424.38956 45.171875 424.38956Q45.828125 424.38956 46.3125 423.8583Q46.796875 423.31143 46.796875 422.38956Q46.796875 421.49893 46.3125 420.9833Q45.84375 420.46768 45.125 420.46768Q44.40625 420.46768 43.90625 420.9833Q43.421875 421.49893 43.421875 422.32706ZM49.453125 418.57706Q49.453125 417.65518 49.90625 417.01456Q50.375 416.37393 51.25 416.37393Q52.0625 416.37393 52.59375 416.95206Q53.125 417.53018 53.125 418.63956Q53.125 419.7333 52.578125 420.32706Q52.046875 420.90518 51.265625 420.90518Q50.484375 420.90518 49.96875 420.32706Q49.453125 419.74893 49.453125 418.57706ZM51.28125 417.09268Q50.890625 417.09268 50.625 417.43643Q50.375 417.78018 50.375 418.68643Q50.375 419.51456 50.625 419.8583Q50.890625 420.18643 51.28125 420.18643Q51.6875 420.18643 51.9375 419.84268Q52.203125 419.49893 52.203125 418.6083Q52.203125 417.76456 51.9375 417.43643Q51.671875 417.09268 51.28125 417.09268ZM51.28125 425.4208L55.984375 416.37393L56.84375 416.37393L52.15625 425.4208L51.28125 425.4208ZM55.0 423.09268Q55.0 422.1708 55.453125 421.53018Q55.921875 420.88956 56.8125 420.88956Q57.625 420.88956 58.15625 421.46768Q58.6875 422.03018 58.6875 423.15518Q58.6875 424.24893 58.140625 424.84268Q57.609375 425.4208 56.8125 425.4208Q56.046875 425.4208 55.515625 424.84268Q55.0 424.26456 55.0 423.09268ZM56.84375 421.6083Q56.4375 421.6083 56.171875 421.95206Q55.921875 422.2958 55.921875 423.20206Q55.921875 424.01456 56.1875 424.3583Q56.453125 424.70206 56.84375 424.70206Q57.234375 424.70206 57.5 424.3583Q57.765625 424.01456 57.765625 423.1083Q57.765625 422.28018 57.5 421.95206Q57.234375 421.6083 56.84375 421.6083Z" fill-rule="nonzero"/><path stroke="#757575" stroke-width="1.0" stroke-linecap="butt" d="M24.75 412.6083L239.25 412.6083L335.64026 412.6083" fill-rule="nonzero"/><path fill="#9e9e9e" d="M337.64026 412.6083C337.64026 411.50372 336.74484 410.6083 335.64026 410.6083C334.5357 410.6083 333.64026 411.50372 333.64026 412.6083C333.64026 413.71286 334.5357 414.6083 335.64026 414.6083C336.74484 414.6083 337.64026 413.71286 337.64026 412.6083" fill-rule="nonzero"/><path fill="#1a1a1a" d="M771.2031 252.59328L771.2031 243.99953L777.40625 243.99953L777.40625 245.01515L772.34375 245.01515L772.34375 247.64015L777.09375 247.64015L777.09375 248.65578L772.34375 248.65578L772.34375 251.57765L777.6094 251.57765L777.6094 252.59328L771.2031 252.59328ZM783.1094 250.31203L784.1406 250.45265Q783.96875 251.51515 783.2656 252.12453Q782.5625 252.7339 781.5469 252.7339Q780.2656 252.7339 779.4844 251.90578Q778.71875 251.06203 778.71875 249.49953Q778.71875 248.49953 779.0469 247.74953Q779.3906 246.9839 780.0625 246.6089Q780.75 246.2339 781.5625 246.2339Q782.5625 246.2339 783.2031 246.74953Q783.8594 247.24953 784.0469 248.20265L783.0156 248.3589Q782.875 247.7339 782.5 247.4214Q782.125 247.09328 781.59375 247.09328Q780.7969 247.09328 780.2969 247.6714Q779.7969 248.2339 779.7969 249.46828Q779.7969 250.7339 780.28125 251.2964Q780.7656 251.8589 781.53125 251.8589Q782.15625 251.8589 782.5625 251.4839Q782.9844 251.1089 783.1094 250.31203ZM784.65625 249.4839Q784.65625 247.74953 785.6094 246.9214Q786.40625 246.2339 787.5625 246.2339Q788.84375 246.2339 789.65625 247.07765Q790.4844 247.90578 790.4844 249.39015Q790.4844 250.59328 790.125 251.28078Q789.7656 251.96828 789.0625 252.3589Q788.375 252.7339 787.5625 252.7339Q786.2656 252.7339 785.4531 251.90578Q784.65625 251.06203 784.65625 249.4839ZM785.7344 249.4839Q785.7344 250.6714 786.25 251.26515Q786.78125 251.8589 787.5625 251.8589Q788.3594 251.8589 788.875 251.26515Q789.3906 250.6714 789.3906 249.45265Q789.3906 248.2964 788.8594 247.70265Q788.34375 247.1089 787.5625 247.1089Q786.78125 247.1089 786.25 247.70265Q785.7344 248.28078 785.7344 249.4839ZM791.625 250.7339L792.65625 250.57765Q792.75 251.20265 793.1406 251.53078Q793.5469 251.8589 794.28125 251.8589Q795.0 251.8589 795.34375 251.57765Q795.7031 251.28078 795.7031 250.87453Q795.7031 250.51515 795.3906 250.31203Q795.1719 250.1714 794.3125 249.95265Q793.15625 249.65578 792.7031 249.45265Q792.2656 249.2339 792.03125 248.8589Q791.7969 248.4839 791.7969 248.01515Q791.7969 247.6089 791.9844 247.24953Q792.1719 246.89015 792.5 246.65578Q792.75 246.4839 793.1719 246.3589Q793.59375 246.2339 794.09375 246.2339Q794.8125 246.2339 795.3594 246.45265Q795.9219 246.65578 796.1875 247.01515Q796.4531 247.37453 796.5469 247.96828L795.5156 248.1089Q795.4531 247.64015 795.1094 247.37453Q794.78125 247.09328 794.15625 247.09328Q793.4375 247.09328 793.125 247.34328Q792.8125 247.57765 792.8125 247.90578Q792.8125 248.1089 792.9375 248.26515Q793.0781 248.43703 793.34375 248.5464Q793.5 248.6089 794.28125 248.81203Q795.40625 249.12453 795.84375 249.31203Q796.28125 249.49953 796.53125 249.8589Q796.78125 250.21828 796.78125 250.76515Q796.78125 251.2964 796.46875 251.76515Q796.1719 252.21828 795.59375 252.4839Q795.0156 252.7339 794.28125 252.7339Q793.0625 252.7339 792.4219 252.2339Q791.7969 251.71828 791.625 250.7339ZM799.0 254.9839L798.875 253.99953Q799.21875 254.09328 799.4844 254.09328Q799.8281 254.09328 800.03125 253.96828Q800.25 253.8589 800.3906 253.65578Q800.4844 253.4839 800.71875 252.8589Q800.7344 252.78078 800.8125 252.6089L798.4375 246.37453L799.5781 246.37453L800.875 249.96828Q801.125 250.65578 801.3281 251.4214Q801.5156 250.68703 801.7656 249.99953L803.09375 246.37453L804.1406 246.37453L801.78125 252.70265Q801.3906 253.71828 801.1875 254.1089Q800.90625 254.64015 800.53125 254.87453Q800.1719 255.12453 799.6719 255.12453Q799.375 255.12453 799.0 254.9839ZM803.625 250.7339L804.65625 250.57765Q804.75 251.20265 805.1406 251.53078Q805.5469 251.8589 806.28125 251.8589Q807.0 251.8589 807.34375 251.57765Q807.7031 251.28078 807.7031 250.87453Q807.7031 250.51515 807.3906 250.31203Q807.1719 250.1714 806.3125 249.95265Q805.15625 249.65578 804.7031 249.45265Q804.2656 249.2339 804.03125 248.8589Q803.7969 248.4839 803.7969 248.01515Q803.7969 247.6089 803.9844 247.24953Q804.1719 246.89015 804.5 246.65578Q804.75 246.4839 805.1719 246.3589Q805.59375 246.2339 806.09375 246.2339Q806.8125 246.2339 807.3594 246.45265Q807.9219 246.65578 808.1875 247.01515Q808.4531 247.37453 808.5469 247.96828L807.5156 248.1089Q807.4531 247.64015 807.1094 247.37453Q806.78125 247.09328 806.15625 247.09328Q805.4375 247.09328 805.125 247.34328Q804.8125 247.57765 804.8125 247.90578Q804.8125 248.1089 804.9375 248.26515Q805.0781 248.43703 805.34375 248.5464Q805.5 248.6089 806.28125 248.81203Q807.40625 249.12453 807.84375 249.31203Q808.28125 249.49953 808.53125 249.8589Q808.78125 250.21828 808.78125 250.76515Q808.78125 251.2964 808.46875 251.76515Q808.1719 252.21828 807.59375 252.4839Q807.0156 252.7339 806.28125 252.7339Q805.0625 252.7339 804.4219 252.2339Q803.7969 251.71828 803.625 250.7339ZM813.34375 251.65578L813.5 252.57765Q813.0469 252.6714 812.7031 252.6714Q812.125 252.6714 811.8125 252.49953Q811.5 252.31203 811.3594 252.01515Q811.2344 251.71828 811.2344 250.76515L811.2344 247.18703L810.46875 247.18703L810.46875 246.37453L811.2344 246.37453L811.2344 244.82765L812.28125 244.20265L812.28125 246.37453L813.34375 246.37453L813.34375 247.18703L812.28125 247.18703L812.28125 250.82765Q812.28125 251.28078 812.3281 251.40578Q812.3906 251.53078 812.5156 251.6089Q812.6406 251.68703 812.875 251.68703Q813.0625 251.68703 813.34375 251.65578ZM818.2969 250.59328L819.3906 250.71828Q819.1406 251.6714 818.4375 252.20265Q817.7344 252.7339 816.65625 252.7339Q815.2969 252.7339 814.4844 251.89015Q813.6875 251.0464 813.6875 249.53078Q813.6875 247.96828 814.5 247.1089Q815.3125 246.2339 816.59375 246.2339Q817.84375 246.2339 818.625 247.07765Q819.4219 247.9214 819.4219 249.46828Q819.4219 249.56203 819.4219 249.74953L814.78125 249.74953Q814.84375 250.78078 815.3594 251.32765Q815.875 251.8589 816.65625 251.8589Q817.2344 251.8589 817.6406 251.56203Q818.0625 251.24953 818.2969 250.59328ZM814.84375 248.89015L818.3125 248.89015Q818.25 248.09328 817.9219 247.70265Q817.40625 247.09328 816.6094 247.09328Q815.875 247.09328 815.375 247.57765Q814.8906 248.06203 814.84375 248.89015ZM821.0469 252.59328L821.0469 246.37453L821.9844 246.37453L821.9844 247.24953Q822.28125 246.78078 822.7656 246.51515Q823.25 246.2339 823.875 246.2339Q824.5625 246.2339 825.0 246.51515Q825.4531 246.7964 825.625 247.31203Q826.375 246.2339 827.5469 246.2339Q828.4844 246.2339 828.96875 246.74953Q829.46875 247.24953 829.46875 248.32765L829.46875 252.59328L828.4219 252.59328L828.4219 248.6714Q828.4219 248.0464 828.3125 247.76515Q828.21875 247.4839 827.9531 247.31203Q827.6875 247.14015 827.3125 247.14015Q826.65625 247.14015 826.21875 247.57765Q825.7969 248.01515 825.7969 248.9839L825.7969 252.59328L824.7344 252.59328L824.7344 248.5464Q824.7344 247.84328 824.46875 247.49953Q824.21875 247.14015 823.6406 247.14015Q823.1875 247.14015 822.8125 247.37453Q822.4375 247.6089 822.2656 248.06203Q822.09375 248.51515 822.09375 249.3589L822.09375 252.59328L821.0469 252.59328ZM839.9531 251.57765Q839.4375 252.15578 838.8125 252.45265Q838.2031 252.7339 837.4844 252.7339Q836.1719 252.7339 835.3906 251.84328Q834.7656 251.12453 834.7656 250.21828Q834.7656 249.4214 835.28125 248.78078Q835.7969 248.14015 836.8125 247.65578Q836.2344 246.9839 836.03125 246.57765Q835.84375 246.15578 835.84375 245.76515Q835.84375 244.99953 836.4531 244.43703Q837.0625 243.8589 837.9844 243.8589Q838.8594 243.8589 839.40625 244.40578Q839.96875 244.93703 839.96875 245.68703Q839.96875 246.9214 838.3594 247.78078L839.8906 249.74953Q840.15625 249.2339 840.2969 248.5464L841.40625 248.78078Q841.125 249.90578 840.6406 250.64015Q841.2344 251.4214 841.9844 251.95265L841.2656 252.7964Q840.625 252.37453 839.9531 251.57765ZM837.8125 247.1089Q838.5 246.70265 838.6875 246.40578Q838.8906 246.09328 838.8906 245.71828Q838.8906 245.28078 838.6094 244.99953Q838.34375 244.71828 837.9219 244.71828Q837.5 244.71828 837.2031 244.99953Q836.9219 245.28078 836.9219 245.6714Q836.9219 245.87453 837.03125 246.09328Q837.1406 246.31203 837.34375 246.56203L837.8125 247.1089ZM839.2969 250.74953L837.3594 248.34328Q836.5 248.8589 836.2031 249.2964Q835.90625 249.7339 835.90625 250.15578Q835.90625 250.68703 836.3125 251.24953Q836.7344 251.81203 837.5 251.81203Q837.96875 251.81203 838.46875 251.51515Q838.9844 251.21828 839.2969 250.74953ZM850.2031 249.21828L850.2031 248.21828L853.8281 248.20265L853.8281 251.39015Q853.0 252.06203 852.1094 252.40578Q851.21875 252.7339 850.28125 252.7339Q849.0156 252.7339 847.96875 252.20265Q846.9375 251.65578 846.40625 250.64015Q845.8906 249.6089 845.8906 248.34328Q845.8906 247.07765 846.40625 245.99953Q846.9375 244.90578 847.9219 244.39015Q848.90625 243.8589 850.1875 243.8589Q851.125 243.8589 851.875 244.15578Q852.625 244.45265 853.0469 244.99953Q853.4844 245.53078 853.7031 246.40578L852.6875 246.68703Q852.4844 246.03078 852.1875 245.65578Q851.90625 245.28078 851.375 245.06203Q850.84375 244.82765 850.2031 244.82765Q849.4219 244.82765 848.84375 245.06203Q848.28125 245.2964 847.9219 245.68703Q847.5781 246.07765 847.3906 246.5464Q847.0625 247.34328 847.0625 248.26515Q847.0625 249.4214 847.4531 250.20265Q847.8594 250.96828 848.6094 251.34328Q849.3594 251.71828 850.21875 251.71828Q850.9531 251.71828 851.65625 251.43703Q852.3594 251.14015 852.71875 250.82765L852.71875 249.21828L850.2031 249.21828ZM854.65625 249.4839Q854.65625 247.74953 855.6094 246.9214Q856.40625 246.2339 857.5625 246.2339Q858.84375 246.2339 859.65625 247.07765Q860.4844 247.90578 860.4844 249.39015Q860.4844 250.59328 860.125 251.28078Q859.7656 251.96828 859.0625 252.3589Q858.375 252.7339 857.5625 252.7339Q856.2656 252.7339 855.4531 251.90578Q854.65625 251.06203 854.65625 249.4839ZM855.7344 249.4839Q855.7344 250.6714 856.25 251.26515Q856.78125 251.8589 857.5625 251.8589Q858.3594 251.8589 858.875 251.26515Q859.3906 250.6714 859.3906 249.45265Q859.3906 248.2964 858.8594 247.70265Q858.34375 247.1089 857.5625 247.1089Q856.78125 247.1089 856.25 247.70265Q855.7344 248.28078 855.7344 249.4839ZM863.7656 252.59328L861.40625 246.37453L862.5156 246.37453L863.8594 250.09328Q864.0625 250.70265 864.25 251.34328Q864.3906 250.8589 864.6406 250.1714L866.03125 246.37453L867.1094 246.37453L864.75 252.59328L863.7656 252.59328ZM871.2969 250.59328L872.3906 250.71828Q872.1406 251.6714 871.4375 252.20265Q870.7344 252.7339 869.65625 252.7339Q868.2969 252.7339 867.4844 251.89015Q866.6875 251.0464 866.6875 249.53078Q866.6875 247.96828 867.5 247.1089Q868.3125 246.2339 869.59375 246.2339Q870.84375 246.2339 871.625 247.07765Q872.4219 247.9214 872.4219 249.46828Q872.4219 249.56203 872.4219 249.74953L867.78125 249.74953Q867.84375 250.78078 868.3594 251.32765Q868.875 251.8589 869.65625 251.8589Q870.2344 251.8589 870.6406 251.56203Q871.0625 251.24953 871.2969 250.59328ZM867.84375 248.89015L871.3125 248.89015Q871.25 248.09328 870.9219 247.70265Q870.40625 247.09328 869.6094 247.09328Q868.875 247.09328 868.375 247.57765Q867.8906 248.06203 867.84375 248.89015ZM874.03125 252.59328L874.03125 246.37453L874.9844 246.37453L874.9844 247.31203Q875.34375 246.65578 875.6406 246.45265Q875.9531 246.2339 876.3281 246.2339Q876.8594 246.2339 877.40625 246.56203L877.0469 247.5464Q876.65625 247.31203 876.28125 247.31203Q875.9219 247.31203 875.6406 247.53078Q875.375 247.7339 875.2656 248.1089Q875.0781 248.6714 875.0781 249.32765L875.0781 252.59328L874.03125 252.59328ZM878.0469 252.59328L878.0469 246.37453L878.9844 246.37453L878.9844 247.24953Q879.6719 246.2339 880.96875 246.2339Q881.53125 246.2339 882.0 246.43703Q882.4844 246.64015 882.71875 246.96828Q882.9531 247.2964 883.0469 247.7339Q883.09375 248.03078 883.09375 248.76515L883.09375 252.59328L882.0469 252.59328L882.0469 248.81203Q882.0469 248.15578 881.9219 247.84328Q881.7969 247.53078 881.4844 247.34328Q881.1719 247.14015 880.75 247.14015Q880.0781 247.14015 879.5781 247.57765Q879.09375 247.99953 879.09375 249.18703L879.09375 252.59328L878.0469 252.59328ZM889.1094 251.82765Q888.5156 252.32765 887.96875 252.53078Q887.4375 252.7339 886.8125 252.7339Q885.78125 252.7339 885.2344 252.2339Q884.6875 251.7339 884.6875 250.95265Q884.6875 250.49953 884.8906 250.12453Q885.09375 249.7339 885.4375 249.51515Q885.78125 249.28078 886.2031 249.1714Q886.5 249.07765 887.1406 248.99953Q888.40625 248.8589 889.0156 248.64015Q889.0156 248.4214 889.0156 248.37453Q889.0156 247.71828 888.71875 247.45265Q888.3125 247.1089 887.5156 247.1089Q886.78125 247.1089 886.4219 247.37453Q886.0625 247.62453 885.8906 248.28078L884.8594 248.14015Q885.0 247.4839 885.3281 247.07765Q885.65625 246.6714 886.2656 246.45265Q886.875 246.2339 887.6719 246.2339Q888.46875 246.2339 888.96875 246.4214Q889.46875 246.6089 889.7031 246.89015Q889.9375 247.1714 890.03125 247.6089Q890.0781 247.87453 890.0781 248.57765L890.0781 249.9839Q890.0781 251.45265 890.1406 251.84328Q890.21875 252.2339 890.4219 252.59328L889.3125 252.59328Q889.15625 252.26515 889.1094 251.82765ZM889.0156 249.46828Q888.4375 249.70265 887.2969 249.87453Q886.6406 249.96828 886.375 250.09328Q886.1094 250.20265 885.9531 250.4214Q885.8125 250.64015 885.8125 250.9214Q885.8125 251.34328 886.125 251.62453Q886.4531 251.90578 887.0625 251.90578Q887.6719 251.90578 888.1406 251.64015Q888.625 251.37453 888.84375 250.90578Q889.0156 250.5464 889.0156 249.8589L889.0156 249.46828ZM892.0469 252.59328L892.0469 246.37453L892.9844 246.37453L892.9844 247.24953Q893.6719 246.2339 894.96875 246.2339Q895.53125 246.2339 896.0 246.43703Q896.4844 246.64015 896.71875 246.96828Q896.9531 247.2964 897.0469 247.7339Q897.09375 248.03078 897.09375 248.76515L897.09375 252.59328L896.0469 252.59328L896.0469 248.81203Q896.0469 248.15578 895.9219 247.84328Q895.7969 247.53078 895.4844 247.34328Q895.1719 247.14015 894.75 247.14015Q894.0781 247.14015 893.5781 247.57765Q893.09375 247.99953 893.09375 249.18703L893.09375 252.59328L892.0469 252.59328ZM903.1094 250.31203L904.1406 250.45265Q903.96875 251.51515 903.2656 252.12453Q902.5625 252.7339 901.5469 252.7339Q900.2656 252.7339 899.4844 251.90578Q898.71875 251.06203 898.71875 249.49953Q898.71875 248.49953 899.0469 247.74953Q899.3906 246.9839 900.0625 246.6089Q900.75 246.2339 901.5625 246.2339Q902.5625 246.2339 903.2031 246.74953Q903.8594 247.24953 904.0469 248.20265L903.0156 248.3589Q902.875 247.7339 902.5 247.4214Q902.125 247.09328 901.59375 247.09328Q900.7969 247.09328 900.2969 247.6714Q899.7969 248.2339 899.7969 249.46828Q899.7969 250.7339 900.28125 251.2964Q900.7656 251.8589 901.53125 251.8589Q902.15625 251.8589 902.5625 251.4839Q902.9844 251.1089 903.1094 250.31203ZM909.2969 250.59328L910.3906 250.71828Q910.1406 251.6714 909.4375 252.20265Q908.7344 252.7339 907.65625 252.7339Q906.2969 252.7339 905.4844 251.89015Q904.6875 251.0464 904.6875 249.53078Q904.6875 247.96828 905.5 247.1089Q906.3125 246.2339 907.59375 246.2339Q908.84375 246.2339 909.625 247.07765Q910.4219 247.9214 910.4219 249.46828Q910.4219 249.56203 910.4219 249.74953L905.78125 249.74953Q905.84375 250.78078 906.3594 251.32765Q906.875 251.8589 907.65625 251.8589Q908.2344 251.8589 908.6406 251.56203Q909.0625 251.24953 909.2969 250.59328ZM905.84375 248.89015L909.3125 248.89015Q909.25 248.09328 908.9219 247.70265Q908.40625 247.09328 907.6094 247.09328Q906.875 247.09328 906.375 247.57765Q905.8906 248.06203 905.84375 248.89015Z" fill-rule="nonzero"/><path fill="#9e9e9e" d="M876.75 267.34326L877.8594 267.2495Q877.9844 268.062 878.4219 268.46826Q878.875 268.8745 879.5156 268.8745Q880.2656 268.8745 880.7969 268.2964Q881.3281 267.71826 881.3281 266.78076Q881.3281 265.8745 880.8125 265.3589Q880.3125 264.82764 879.4844 264.82764Q878.9844 264.82764 878.5625 265.062Q878.15625 265.2964 877.9219 265.65576L876.9375 265.53076L877.7656 261.1245L882.0469 261.1245L882.0469 262.1245L878.6094 262.1245L878.15625 264.437Q878.9219 263.89014 879.7656 263.89014Q880.8906 263.89014 881.65625 264.6714Q882.4375 265.45264 882.4375 266.687Q882.4375 267.84326 881.7656 268.70264Q880.9375 269.7339 879.5156 269.7339Q878.34375 269.7339 877.59375 269.07764Q876.8594 268.4214 876.75 267.34326ZM887.71875 269.59326L886.6719 269.59326L886.6719 262.8745Q886.28125 263.2339 885.65625 263.6089Q885.0469 263.96826 884.5625 264.14014L884.5625 263.1245Q885.4375 262.70264 886.09375 262.1245Q886.7656 261.53076 887.0469 260.96826L887.71875 260.96826L887.71875 269.59326ZM891.34375 269.59326L891.34375 268.39014L892.5469 268.39014L892.5469 269.59326L891.34375 269.59326ZM897.125 269.59326L897.125 267.53076L893.40625 267.53076L893.40625 266.562L897.3281 260.9995L898.1875 260.9995L898.1875 266.562L899.34375 266.562L899.34375 267.53076L898.1875 267.53076L898.1875 269.59326L897.125 269.59326ZM897.125 266.562L897.125 262.70264L894.4375 266.562L897.125 266.562ZM900.9531 263.062Q900.9531 262.14014 901.40625 261.4995Q901.875 260.8589 902.75 260.8589Q903.5625 260.8589 904.09375 261.437Q904.625 262.01514 904.625 263.1245Q904.625 264.21826 904.0781 264.812Q903.5469 265.39014 902.7656 265.39014Q901.9844 265.39014 901.46875 264.812Q900.9531 264.2339 900.9531 263.062ZM902.78125 261.57764Q902.3906 261.57764 902.125 261.9214Q901.875 262.26514 901.875 263.1714Q901.875 263.9995 902.125 264.34326Q902.3906 264.6714 902.78125 264.6714Q903.1875 264.6714 903.4375 264.32764Q903.7031 263.9839 903.7031 263.09326Q903.7031 262.2495 903.4375 261.9214Q903.1719 261.57764 902.78125 261.57764ZM902.78125 269.90576L907.4844 260.8589L908.34375 260.8589L903.65625 269.90576L902.78125 269.90576ZM906.5 267.57764Q906.5 266.65576 906.9531 266.01514Q907.4219 265.3745 908.3125 265.3745Q909.125 265.3745 909.65625 265.95264Q910.1875 266.51514 910.1875 267.64014Q910.1875 268.7339 909.6406 269.32764Q909.1094 269.90576 908.3125 269.90576Q907.5469 269.90576 907.0156 269.32764Q906.5 268.7495 906.5 267.57764ZM908.34375 266.09326Q907.9375 266.09326 907.6719 266.437Q907.4219 266.78076 907.4219 267.687Q907.4219 268.4995 907.6875 268.84326Q907.9531 269.187 908.34375 269.187Q908.7344 269.187 909.0 268.84326Q909.2656 268.4995 909.2656 267.59326Q909.2656 266.76514 909.0 266.437Q908.7344 266.09326 908.34375 266.09326Z" fill-rule="nonzero"/><path stroke="#757575" stroke-width="1.0" stroke-linecap="butt" d="M911.25 257.09326L696.75 257.09326L679.39496 257.09326" fill-rule="nonzero"/><path fill="#9e9e9e" d="M681.39496 257.09326C681.39496 255.98871 680.4995 255.09328 679.39496 255.09328C678.29034 255.09328 677.39496 255.98871 677.39496 257.09326C677.39496 258.19785 678.29034 259.09326 679.39496 259.09326C680.4995 259.09326 681.39496 258.19785 681.39496 257.09326" fill-rule="nonzero"/></svg>